<svg width="59" height="59" viewBox="0 0 59 59" fill="none" xmlns="http://www.w3.org/2000/svg">
<circle cx="29.2633" cy="29.263" r="25.6051" fill="#00A82D"/>
<path d="M23.2269 20.1994C23.2269 20.5269 23.2003 21.0728 22.8809 21.4277C22.5349 21.7552 22.0027 21.7825 21.6833 21.7825C19.8868 21.7825 17.3946 21.331 15.6954 22.0281C18.2887 17.3748 23.3126 14.2827 23.2801 14.5494C23.0407 16.3907 23.2269 18.3474 23.2269 20.1994ZM28.6027 41.3256C28.6027 39.0601 30.4124 37.2041 32.6479 37.2041C33.3132 37.2041 33.8455 37.75 33.8455 38.4324C33.8455 38.8964 33.606 39.2785 33.2334 39.4969C32.8276 39.7466 32.2656 39.6301 31.9027 39.9609C31.6366 40.1792 31.4237 40.5341 31.4237 40.9162C31.4237 41.3256 31.5834 41.7077 31.8495 41.9807C32.3285 42.472 32.9673 42.7449 33.6592 42.7449C35.4689 42.7449 36.9326 41.2437 36.9326 39.3877C36.9326 37.7227 35.8415 36.2488 34.4044 35.5937C32.2234 34.4752 28.8864 35.1117 28.6293 31.6086C28.2293 33.4615 27.3469 36.7674 24.9567 36.7674C17.7364 37.2073 15.1339 31.3587 14.6309 25.1671C14.6309 23.8296 15.4293 22.9289 16.4405 22.7924C18.2502 22.7924 20.0599 22.7924 21.8696 22.7924C22.8011 22.7924 23.3333 22.5468 23.6793 22.2192C24.1317 21.7825 24.2382 21.1547 24.2382 20.4178C24.2382 18.498 24.2382 15.5459 24.2382 14.6585C24.2382 13.4997 25.2495 12.8025 26.5535 12.8025C27.3217 12.8025 28.0427 12.8295 28.789 13.0208C30.4124 13.4303 30.7584 15.1226 30.7584 15.1226C30.7584 15.1226 33.8189 15.6684 35.3624 15.9414C36.8262 16.2143 40.4455 16.46 41.1375 20.1994C42.7609 29.0975 41.7762 37.7227 41.6963 37.7227C40.552 46.1295 33.739 45.7201 33.739 45.7201C31.2625 45.7201 28.6027 44.03 28.6027 41.3256ZM36.5866 26.832C35.7084 26.7502 34.9632 27.105 34.6971 27.7874C34.32 28.7543 38.21 29.5584 38.21 28.2241C38.1036 27.4598 37.4649 26.9412 36.5866 26.832Z" fill="white"/>
</svg>
