<svg width="59" height="59" viewBox="0 0 59 59" fill="none" xmlns="http://www.w3.org/2000/svg">
<path fill-rule="evenodd" clip-rule="evenodd" d="M10.454 53.4412L4.16317 45.6043C2.64961 43.7188 1.82812 41.4002 1.82812 39.0137V10.636C1.82812 7.0614 4.68802 4.09525 8.37747 3.84336L37.5536 1.85138C39.6732 1.70667 41.78 2.27007 43.5212 3.44728L53.7721 10.378C55.607 11.6186 56.7 13.6466 56.7 15.8109V48.0736C56.7 51.5718 53.8879 54.4682 50.2756 54.6906L17.8934 56.6839C15.0108 56.8613 12.2245 55.6469 10.454 53.4412Z" fill="white"/>
<path d="M20.5734 24.8363V24.4648C20.5734 23.523 21.3276 22.742 22.2998 22.6771L29.3807 22.2043L39.173 36.6243V23.9683L36.6525 23.6323V23.4559C36.6525 22.503 37.424 21.7168 38.4085 21.6664L44.8514 21.3363V22.2635C44.8514 22.6988 44.5278 23.0711 44.0841 23.1461L42.5337 23.4083V43.9043L40.5879 44.5734C38.9623 45.1325 37.1525 44.5341 36.2219 43.1298L26.7153 28.7843V42.4763L29.6414 43.0363L29.6007 43.3077C29.473 44.1579 28.739 44.8008 27.851 44.8404L20.5734 45.1643C20.4772 44.2501 21.1624 43.4321 22.1076 43.3328L23.0649 43.2323V24.9763L20.5734 24.8363Z" fill="black"/>
<path fill-rule="evenodd" clip-rule="evenodd" d="M37.8156 5.42646L8.63943 7.41843C6.8918 7.53775 5.53711 8.94276 5.53711 10.636V39.0137C5.53711 40.6047 6.08477 42.1504 7.09381 43.4074L13.3846 51.2443C14.4017 52.5114 16.0024 53.2091 17.6583 53.1072L50.0406 51.1138C51.7003 51.0117 52.9923 49.6809 52.9923 48.0736V15.8109C52.9923 14.8165 52.4901 13.8847 51.6471 13.3147L41.3961 6.38399C40.3514 5.67767 39.0873 5.33963 37.8156 5.42646ZM10.0862 11.0787C9.68043 10.7782 9.87355 10.1523 10.3833 10.1158L38.0118 8.13407C38.8921 8.07093 39.7668 8.31333 40.4788 8.81771L46.0222 12.7452C46.2327 12.8943 46.1339 13.2162 45.8734 13.2303L16.6149 14.8216C15.7294 14.8697 14.8554 14.6096 14.1514 14.0884L10.0862 11.0787ZM15.2425 19.8101C15.2425 18.8595 16.0104 18.0744 16.9924 18.0209L47.9269 16.3362C48.8839 16.2841 49.6896 17.0201 49.6896 17.9465V45.8825C49.6896 46.8313 48.9244 47.6157 47.9444 47.6714L17.2057 49.4204C16.1406 49.481 15.2425 48.6626 15.2425 47.6315V19.8101Z" fill="black"/>
</svg>
