<svg width="59" height="59" viewBox="0 0 59 59" fill="none" xmlns="http://www.w3.org/2000/svg">
<path d="M45.4461 17.5893C46.0161 13.8728 45.4461 11.3951 43.451 9.10803C41.266 6.53506 37.2758 5.48682 32.1457 5.48682H17.4202C16.3751 5.48682 15.5201 6.24918 15.3301 7.29742L9.15489 46.3684C9.05989 47.1308 9.62991 47.7979 10.3899 47.7979H19.5102L18.8452 51.8003C18.7502 52.4673 19.2252 53.0391 19.9853 53.0391H27.6805C28.6305 53.0391 29.3906 52.372 29.4856 51.5144L31.1006 41.4131C31.1956 40.5554 32.0507 39.8884 32.9057 39.8884H34.0457C41.456 39.8884 47.3462 36.8389 49.0562 28.0718C49.7212 24.4506 49.4362 21.3058 47.5362 19.2093C46.9662 18.5423 46.3011 18.0658 45.4461 17.5893Z" fill="#009CDE"/>
<path d="M45.4461 17.5893C46.0161 13.8728 45.4461 11.3951 43.451 9.10803C41.266 6.53506 37.2758 5.48682 32.1457 5.48682H17.4202C16.3751 5.48682 15.5201 6.24918 15.3301 7.29742L9.15489 46.3684C9.05989 47.1308 9.62991 47.7979 10.3899 47.7979H19.5102L21.6953 33.6942C21.8853 32.6459 22.7403 31.8836 23.7854 31.8836H28.1555C36.7058 31.8836 43.356 28.453 45.2561 18.3517C45.3511 18.1611 45.3511 17.8752 45.4461 17.5893Z" fill="#012169"/>
<path d="M24.2604 17.6846C24.3554 17.0175 25.2104 16.1599 26.0655 16.1599H37.6558C38.9859 16.1599 40.3159 16.2552 41.456 16.4458C42.501 16.6364 44.4011 17.1128 45.3511 17.6846C45.9211 13.9681 45.3511 11.4904 43.356 9.20333C41.266 6.53506 37.2758 5.48682 32.1457 5.48682H17.4202C16.3751 5.48682 15.5201 6.24918 15.3301 7.29742L9.15489 46.3684C9.05989 47.1308 9.62991 47.7979 10.3899 47.7979H19.5102L24.2604 17.6846Z" fill="#003087"/>
</svg>
