<svg width="59" height="59" viewBox="0 0 59 59" fill="none" xmlns="http://www.w3.org/2000/svg">
<path d="M54.8706 29.8317C54.8706 27.7264 54.6963 26.1901 54.319 24.5969H29.7881V34.0991H44.1872C43.897 36.4606 42.3293 40.0168 38.8456 42.4065L38.7968 42.7246L46.553 48.6131L47.0903 48.6657C52.0255 44.199 54.8706 37.627 54.8706 29.8317Z" fill="#4285F4"/>
<path d="M29.785 54.8681C36.8393 54.8681 42.7615 52.5919 47.0872 48.6659L38.8425 42.4067C36.6362 43.9145 33.675 44.9672 29.785 44.9672C22.8758 44.9672 17.0116 40.5006 14.9212 34.3269L14.6148 34.3524L6.54981 40.4692L6.44434 40.7566C10.7408 49.1209 19.5661 54.8681 29.785 54.8681Z" fill="#34A853"/>
<path d="M14.9249 34.3272C14.3733 32.734 14.0541 31.0268 14.0541 29.263C14.0541 27.499 14.3734 25.7921 14.8959 24.1989L14.8813 23.8596L6.71519 17.6445L6.44801 17.7691C4.67722 21.24 3.66113 25.1378 3.66113 29.263C3.66113 33.3883 4.67722 37.2858 6.44801 40.7568L14.9249 34.3272Z" fill="#FBBC05"/>
<path d="M29.7851 13.5585C34.6912 13.5585 38.0007 15.6354 39.8878 17.3709L47.2615 10.3153C42.7329 6.19003 36.8395 3.65796 29.7851 3.65796C19.5662 3.65796 10.7408 9.40483 6.44434 17.7691L14.8923 24.1989C17.0117 18.0252 22.8759 13.5585 29.7851 13.5585Z" fill="#EB4335"/>
</svg>
