<svg width="59" height="59" viewBox="0 0 59 59" fill="none" xmlns="http://www.w3.org/2000/svg">
<path d="M10.6022 12.7949L3.74023 19.0149L6.11453 22.0044C7.17189 21.3472 9.28659 19.6325 10.2296 19.6325C12.3443 19.6325 14.2454 25.3623 16.0594 31.6635C17.6883 37.3218 19.3743 51.3817 27.1473 51.3817C36.0919 51.3817 54.8956 27.2341 54.8956 16.4867C54.8956 12.5979 54.1241 7.00146 46.3797 7.00146C38.0809 7.00146 33.998 15.0104 32.9939 19.0149C33.7162 18.5333 35.6825 18.2122 36.766 18.2122C41.1801 18.2122 40.2374 22.7876 39.6355 24.6335C39.0335 26.4794 34.4059 35.4675 31.9105 35.4675C28.8607 35.4675 27.0549 22.2251 26.1721 16.4867C25.2893 10.7483 23.0019 7.61833 19.5108 7.61833C16.7178 7.61833 12.408 11.0694 10.6022 12.7949Z" fill="#3CB9E6"/>
</svg>
