<svg width="59" height="59" viewBox="0 0 59 59" fill="none" xmlns="http://www.w3.org/2000/svg">
<path d="M54.8684 26.583H39.2681L52.778 18.782L50.0989 14.139L36.5873 21.94L44.3857 8.42904L39.7442 5.74904L31.9441 19.2566V3.65796H26.5825V19.2583L18.7823 5.74904L14.1391 8.42904L21.9376 21.9366L8.4294 14.139L5.74859 18.782L19.2584 26.583H3.6582V31.9447H19.2567L5.74859 39.7458L8.42769 44.3888L21.9393 36.5878L14.1391 50.0987L18.7806 52.7787L26.5825 39.2695V54.8681H31.9441V38.9349L39.8876 52.6934L44.2407 50.1807L36.2955 36.4188L50.0955 44.3871L52.7763 39.744L39.2681 31.943H54.8667V26.583H54.8684ZM29.2633 36.552C28.3062 36.5521 27.3584 36.3636 26.4741 35.9973C25.5899 35.631 24.7864 35.0941 24.1095 34.4172C23.4327 33.7403 22.8957 32.9366 22.5293 32.0521C22.163 31.1676 21.9743 30.2196 21.9742 29.2622C21.9741 28.3048 22.1625 27.3567 22.5287 26.4721C22.8949 25.5875 23.4316 24.7838 24.1083 24.1067C24.785 23.4296 25.5884 22.8925 26.4726 22.526C27.3568 22.1595 28.3045 21.9708 29.2616 21.9707C31.1945 21.9705 33.0484 22.7384 34.4154 24.1055C35.7823 25.4726 36.5504 27.3269 36.5506 29.2605C36.5508 31.1941 35.7832 33.0486 34.4166 34.416C33.0499 35.7834 31.1962 36.5517 29.2633 36.552Z" fill="#625DF5"/>
</svg>
