<svg width="59" height="59" viewBox="0 0 59 59" fill="none" xmlns="http://www.w3.org/2000/svg">
<path d="M35.4534 19.9668C37.4292 16.5165 36.2567 12.1045 32.8346 10.1125C29.4125 8.1204 25.0366 9.30257 23.0609 12.7529L8.28593 38.5551C6.31018 42.0054 7.48268 46.4174 10.9048 48.4095C14.3269 50.4015 18.7027 49.2193 20.6785 45.769L35.4534 19.9668Z" fill="#F8BB2D"/>
<path d="M21.6301 42.1654C21.6301 46.1506 18.4259 49.3813 14.4733 49.3813C10.5206 49.3813 7.31641 46.1506 7.31641 42.1654C7.31641 38.1801 10.5206 34.9495 14.4733 34.9495C18.4259 34.9495 21.6301 38.1801 21.6301 42.1654Z" fill="#3BA757"/>
<path d="M23.0828 19.9668C21.1071 16.5165 22.2796 12.1045 25.7017 10.1125C29.1238 8.1204 33.4996 9.30257 35.4754 12.7529L50.2503 38.5551C52.226 42.0054 51.0535 46.4174 47.6314 48.4095C44.2093 50.4015 39.8335 49.2193 37.8577 45.769L23.0828 19.9668Z" fill="#4689F2"/>
</svg>
