<svg width="109" height="24" viewBox="0 0 109 24" fill="none" xmlns="http://www.w3.org/2000/svg">
<g clip-path="url(#clip0_350_8464)">
<path fill-rule="evenodd" clip-rule="evenodd" d="M34.5586 1.59737C34.5586 0.784071 35.2251 0.124756 36.0474 0.124756H38.6409C39.2261 0.124756 39.7932 0.32536 40.2457 0.692421L41.0347 1.33239L41.0544 1.35019C41.0726 1.34411 41.0908 1.33818 41.1091 1.33239C42.5324 0.88143 44.2594 0.795668 46.022 0.795668C47.7846 0.795668 49.5115 0.88143 50.9349 1.33239C50.9532 1.33818 50.9714 1.34411 50.9896 1.35019L51.0093 1.33239L51.7983 0.692421C52.2507 0.32536 52.8179 0.124756 53.4031 0.124756H55.9966C56.8189 0.124756 57.4854 0.784071 57.4854 1.59737V2.50772C57.4854 3.21206 57.1854 3.88382 56.6591 4.3582L56.0226 4.93186C55.7119 5.21191 55.339 5.41572 54.9339 5.52683L54.7833 5.56814C55.3731 6.9601 55.6989 8.44798 55.6989 9.65161C55.6989 14.4934 52.6703 16.5845 50.0017 18.427C47.9002 19.878 46.022 21.1748 46.022 23.5394C46.022 21.1748 44.1438 19.878 42.0423 18.427C39.3737 16.5845 36.3451 14.4934 36.3451 9.65161C36.3451 8.44798 36.6709 6.9601 37.2606 5.56814L37.1101 5.52683C36.705 5.41572 36.3321 5.21191 36.0214 4.93186L35.3849 4.3582C34.8585 3.88382 34.5586 3.21206 34.5586 2.50772V1.59737ZM47.9574 13.61C47.9574 13.8413 47.8554 14.0631 47.6739 14.2267C47.4925 14.3903 47.2463 14.4822 46.9897 14.4822C46.7681 14.4822 46.5543 14.4136 46.3833 14.2896C46.6744 15.0606 47.4195 15.791 48.5529 14.6163C49.5534 13.5248 48.5084 11.2226 47.4903 9.85649C47.151 9.40113 46.5939 9.18197 46.022 9.18197C45.4501 9.18197 44.893 9.40113 44.5537 9.85649C43.5356 11.2226 42.4906 13.5248 43.4911 14.6163C44.6244 15.791 45.3695 15.0606 45.6607 14.2896C45.4897 14.4136 45.2759 14.4822 45.0543 14.4822C44.7976 14.4822 44.5515 14.3903 44.37 14.2267C44.1886 14.0631 44.0866 13.8413 44.0866 13.61H47.9574ZM42.3162 6.79508H39.6204L41.745 8.47783C42.2125 8.84808 42.8958 8.72972 43.1851 8.22835C43.5504 7.59534 43.0652 6.79508 42.3162 6.79508ZM49.7278 6.79508H52.4236L50.299 8.47783C49.8315 8.84808 49.1481 8.72972 48.8588 8.22835C48.4936 7.59534 48.9787 6.79508 49.7278 6.79508Z" fill="white"/>
<path d="M60.6973 16.7099H63.0856V7.70113H60.6973V16.7099ZM60.6973 6.29625H63.0856V4.15381H60.6973V6.29625Z" fill="white"/>
<path d="M64.623 19.6602H67.0113V15.6914H67.0465C67.5557 16.4641 68.3811 16.9734 69.6455 16.9734C71.9635 16.9734 73.544 15.1295 73.544 12.2143C73.544 9.40459 72.0162 7.45532 69.6279 7.45532C68.3987 7.45532 67.5557 8.03483 66.9762 8.82508H66.9235V7.70118H64.623V19.6602ZM69.1362 14.989C67.7138 14.989 66.9587 13.9178 66.9587 12.2846C66.9587 10.669 67.5557 9.38703 69.0484 9.38703C70.5235 9.38703 71.1206 10.5812 71.1206 12.2846C71.1206 13.988 70.3479 14.989 69.1362 14.989Z" fill="white"/>
<path d="M78.3084 16.9734C80.5562 16.9734 82.1016 15.8846 82.1016 14.0758C82.1016 11.9685 80.4333 11.547 78.923 11.2309C77.6411 10.9675 76.4469 10.8973 76.4469 10.1246C76.4469 9.47483 77.0616 9.12361 77.9923 9.12361C79.0108 9.12361 79.6255 9.47483 79.7308 10.4407H81.8908C81.7152 8.63191 80.3981 7.45532 78.0274 7.45532C75.9728 7.45532 74.3572 8.38605 74.3572 10.3353C74.3572 12.3022 75.9377 12.7412 77.5533 13.0573C78.7825 13.3031 79.924 13.3909 79.924 14.2514C79.924 14.8836 79.3269 15.2875 78.2733 15.2875C77.202 15.2875 76.4645 14.8309 76.3064 13.7948H74.0938C74.2342 15.709 75.6918 16.9734 78.3084 16.9734Z" fill="white"/>
<path d="M91.1699 16.71V7.70117H88.7816V12.8992C88.7816 14.0934 88.0967 14.9363 86.9728 14.9363C85.9542 14.9363 85.4801 14.3568 85.4801 13.3031V7.70117H83.1094V13.707C83.1094 15.6739 84.2333 16.9558 86.2352 16.9558C87.4996 16.9558 88.2021 16.4817 88.8167 15.6563H88.8694V16.71H91.1699Z" fill="white"/>
<path d="M92.7148 16.71H95.1031V11.4768C95.1031 10.2826 95.7529 9.50996 96.7187 9.50996C97.5968 9.50996 98.1061 10.0368 98.1061 11.0553V16.71H100.494V11.4768C100.494 10.2826 101.109 9.50996 102.11 9.50996C102.988 9.50996 103.497 10.0368 103.497 11.0553V16.71H105.886V10.6514C105.886 8.68459 104.814 7.45532 102.918 7.45532C101.776 7.45532 100.828 8.0524 100.213 9.03581H100.178C99.7392 8.08752 98.8261 7.45532 97.6846 7.45532C96.4378 7.45532 95.5597 8.08752 95.068 8.91288H95.0153V7.70118H92.7148V16.71Z" fill="white"/>
<path d="M0.400391 16.7099H2.78868V4.15381H0.400391V16.7099Z" fill="white"/>
<path d="M8.62825 16.9734C11.4204 16.9734 13.3346 14.9012 13.3346 12.2143C13.3346 9.52752 11.4204 7.45532 8.62825 7.45532C5.83602 7.45532 3.92188 9.52752 3.92188 12.2143C3.92188 14.9012 5.83602 16.9734 8.62825 16.9734ZM8.62825 15.147C7.15312 15.147 6.34532 13.9704 6.34532 12.2143C6.34532 10.4582 7.15312 9.2641 8.62825 9.2641C10.0858 9.2641 10.9112 10.4582 10.9112 12.2143C10.9112 13.9704 10.0858 15.147 8.62825 15.147Z" fill="white"/>
<path d="M18.4137 19.7831C19.7483 19.7831 20.9073 19.467 21.6624 18.7646C22.3298 18.15 22.7337 17.2895 22.7337 16.0251V7.70118H20.4332V8.64947H20.3981C19.8537 7.89435 19.0283 7.45532 17.9044 7.45532C15.6215 7.45532 14.0059 9.1763 14.0059 11.8631C14.0059 14.5851 15.9727 16.1656 17.9746 16.1656C19.1161 16.1656 19.801 15.709 20.3278 15.1119H20.3805V16.0953C20.3805 17.3246 19.7307 17.9743 18.3785 17.9743C17.2722 17.9743 16.7629 17.5353 16.5698 16.9734H14.199C14.4449 18.7295 15.9551 19.7831 18.4137 19.7831ZM18.3785 14.2514C17.1493 14.2514 16.3415 13.3558 16.3415 11.828C16.3415 10.3178 17.1493 9.36947 18.361 9.36947C19.801 9.36947 20.5034 10.4934 20.5034 11.8104C20.5034 13.1451 19.8888 14.2514 18.3785 14.2514Z" fill="white"/>
<path d="M28.5384 16.9734C31.3306 16.9734 33.2447 14.9012 33.2447 12.2143C33.2447 9.52752 31.3306 7.45532 28.5384 7.45532C25.7462 7.45532 23.832 9.52752 23.832 12.2143C23.832 14.9012 25.7462 16.9734 28.5384 16.9734ZM28.5384 15.147C27.0632 15.147 26.2554 13.9704 26.2554 12.2143C26.2554 10.4582 27.0632 9.2641 28.5384 9.2641C29.9959 9.2641 30.8213 10.4582 30.8213 12.2143C30.8213 13.9704 29.9959 15.147 28.5384 15.147Z" fill="white"/>
<path d="M105.777 5.73439C105.777 5.33028 106.105 5.00269 106.509 5.00269H107.972C108.376 5.00269 108.704 5.33028 108.704 5.73439C108.704 6.13848 108.376 6.46611 107.972 6.46611H106.509C106.105 6.46611 105.777 6.13848 105.777 5.73439Z" fill="white"/>
</g>
<defs>
<clipPath id="clip0_350_8464">
<rect width="108.878" height="24" fill="white"/>
</clipPath>
</defs>
</svg>
