<svg width="88" height="24" viewBox="0 0 88 24" fill="none" xmlns="http://www.w3.org/2000/svg">
<g clip-path="url(#clip0_350_8491)">
<path fill-rule="evenodd" clip-rule="evenodd" d="M3.37285 1.55619V0.10791H0.0625V13.4527C0.0625 19.2232 4.74035 23.9011 10.5108 23.9011C16.2812 23.9011 20.9591 19.2232 20.9591 13.4527V0.10791H17.6487V1.55619H12.0625V0.10791H8.75216V1.55619H3.37285ZM8.75214 20.3724C5.68955 19.5964 3.41605 16.8407 3.37345 13.5469C3.72627 13.6324 4.07274 13.7452 4.40965 13.8848C5.26312 14.2383 6.03859 14.7564 6.6918 15.4096C7.34501 16.0629 7.86317 16.8383 8.21669 17.6918C8.56874 18.5417 8.75065 19.4525 8.75214 20.3724ZM9.03257 13.0689C9.55095 13.5872 10.0115 14.158 10.4073 14.7708C10.8032 14.158 11.2637 13.5872 11.7821 13.0689C12.3005 12.5505 12.8712 12.09 13.484 11.6941C12.8712 11.2983 12.3005 10.8377 11.7821 10.3194C11.2637 9.80099 10.8032 9.23027 10.4073 8.61742C10.0115 9.23027 9.55095 9.80099 9.03257 10.3194C8.51421 10.8377 7.94348 11.2983 7.33063 11.6941C7.94348 12.09 8.51421 12.5505 9.03257 13.0689ZM17.6485 13.5C17.6266 16.8884 15.2438 19.7163 12.0625 20.4215V20.3838C12.0625 19.46 12.2444 18.5452 12.598 17.6918C12.9515 16.8383 13.4696 16.0629 14.1228 15.4096C14.7761 14.7564 15.5515 14.2383 16.405 13.8848C16.8077 13.718 17.2241 13.5894 17.6485 13.5ZM8.50124 4.86653C8.4239 5.14824 8.32895 5.42542 8.21669 5.69643C7.86317 6.5499 7.34501 7.32537 6.6918 7.97859C6.03859 8.6318 5.26312 9.14995 4.40965 9.50347C4.07253 9.64311 3.72586 9.75599 3.37285 9.84144V4.86653H8.50124ZM17.6487 9.88824V4.86653H12.3134C12.3907 5.14824 12.4857 5.42542 12.598 5.69643C12.9515 6.5499 13.4696 7.32537 14.1228 7.97859C14.7761 8.6318 15.5515 9.14995 16.405 9.50347C16.8078 9.67029 17.2242 9.79892 17.6487 9.88824Z" fill="white"/>
<path d="M26.5 2.03564V10.8666H32.0711V9.26635H28.3372V2.03564H26.5Z" fill="white"/>
<path d="M54.5586 4.39453V10.8666H56.3367V4.39453H54.5586Z" fill="white"/>
<path d="M54.5586 2.03564V3.81369H56.3367V2.03564H54.5586Z" fill="white"/>
<path fill-rule="evenodd" clip-rule="evenodd" d="M57.2812 13.2372V4.39444H58.9408V5.06586C59.1324 4.84022 59.3695 4.65987 59.6519 4.52482C60.0233 4.34307 60.4461 4.2522 60.9201 4.2522C61.5367 4.2522 62.0937 4.40234 62.5917 4.70263C63.0895 5.00292 63.4846 5.40989 63.777 5.92355C64.0693 6.42931 64.2156 6.99827 64.2156 7.63047C64.2156 8.25476 64.0693 8.82374 63.777 9.33738C63.4925 9.85105 63.1013 10.258 62.6035 10.5583C62.1057 10.8586 61.5406 11.0088 60.9084 11.0088C60.4658 11.0088 60.0549 10.9297 59.6757 10.7717C59.4421 10.6673 59.2366 10.5332 59.0593 10.3695V13.2372H57.2812ZM60.695 9.40851C61.0269 9.40851 61.3193 9.33343 61.5723 9.18329C61.8251 9.03314 62.0227 8.82374 62.1648 8.55505C62.3072 8.28637 62.3781 7.97818 62.3781 7.63047C62.3781 7.28276 62.3072 6.97851 62.1648 6.71774C62.0227 6.44907 61.8251 6.23965 61.5723 6.0895C61.3193 5.93145 61.0269 5.85244 60.695 5.85244C60.3789 5.85244 60.0944 5.9275 59.8416 6.07765C59.5966 6.22779 59.403 6.43721 59.2608 6.70589C59.1264 6.97456 59.0593 7.28276 59.0593 7.63047C59.0593 7.97818 59.1264 8.28637 59.2608 8.55505C59.403 8.82374 59.5966 9.03314 59.8416 9.18329C60.0944 9.33343 60.3789 9.40851 60.695 9.40851Z" fill="white"/>
<path d="M65.5765 10.5109C66.106 10.8428 66.7262 11.0088 67.4376 11.0088C67.9432 11.0088 68.3818 10.9258 68.7532 10.7598C69.1246 10.586 69.413 10.3489 69.6187 10.0486C69.832 9.74832 69.9385 9.39666 69.9385 8.99365C69.9385 8.5274 69.7964 8.13622 69.5119 7.82013C69.2274 7.49613 68.8165 7.25511 68.2792 7.09707L67.2478 6.78887C67.0898 6.74145 66.9555 6.69008 66.8448 6.63478C66.7422 6.57945 66.6671 6.51622 66.6197 6.44511C66.5721 6.37398 66.5485 6.29497 66.5485 6.20803C66.5485 6.04208 66.6116 5.91169 66.738 5.81687C66.8725 5.72203 67.0542 5.67463 67.2834 5.67463C67.5996 5.67463 67.8801 5.7576 68.1251 5.92355C68.3779 6.0816 68.5517 6.29497 68.6467 6.56365L69.9623 5.94726C69.7647 5.40989 69.425 4.99502 68.9429 4.70263C68.4687 4.40234 67.9157 4.2522 67.2834 4.2522C66.8014 4.2522 66.3747 4.33911 66.0031 4.51297C65.6318 4.67892 65.3434 4.91205 65.1379 5.21234C64.9325 5.51263 64.8296 5.86429 64.8296 6.26731C64.8296 6.72565 64.972 7.12471 65.2565 7.46451C65.5409 7.79642 65.9479 8.03745 66.4774 8.1876L67.5797 8.49579C67.722 8.53529 67.8406 8.58271 67.9354 8.63803C68.0301 8.69334 68.1013 8.75656 68.1487 8.82769C68.196 8.8909 68.2198 8.96994 68.2198 9.06476C68.2198 9.24651 68.1526 9.38876 68.0183 9.49148C67.884 9.59422 67.6904 9.64558 67.4376 9.64558C67.0898 9.64558 66.7736 9.5468 66.4891 9.34924C66.2047 9.15169 65.9796 8.87905 65.8136 8.53134L64.5098 9.14772C64.6993 9.71671 65.0549 10.1711 65.5765 10.5109Z" fill="white"/>
<path d="M77.3867 10.8665V4.39444H79.0462V5.17628C79.1677 4.93971 79.3375 4.75024 79.556 4.60781C79.9195 4.37073 80.354 4.2522 80.8599 4.2522C81.3972 4.2522 81.8675 4.39049 82.2705 4.66707C82.5101 4.82379 82.6973 5.01279 82.8322 5.23405C83.0035 4.98368 83.2075 4.78282 83.444 4.6315C83.839 4.37863 84.3014 4.2522 84.8309 4.2522C85.297 4.2522 85.7079 4.35492 86.0635 4.56039C86.4271 4.76586 86.7115 5.05429 86.917 5.42569C87.1224 5.78921 87.2253 6.21594 87.2253 6.70589V10.8665H85.4472V7.08521C85.4472 6.83232 85.3998 6.61502 85.3051 6.43326C85.218 6.2515 85.0915 6.10926 84.9256 6.00654C84.7597 5.90379 84.5582 5.85244 84.3211 5.85244C84.092 5.85244 83.8905 5.90379 83.7165 6.00654C83.5506 6.10926 83.4202 6.2515 83.3255 6.43326C83.2386 6.61502 83.1949 6.83232 83.1949 7.08521V10.8665H81.4171V7.08521C81.4171 6.83232 81.3695 6.61502 81.2747 6.43326C81.1878 6.2515 81.0614 6.10926 80.8955 6.00654C80.7295 5.90379 80.528 5.85244 80.2909 5.85244C80.0617 5.85244 79.8602 5.90379 79.6864 6.00654C79.5204 6.10926 79.3901 6.2515 79.2951 6.43326C79.2082 6.61502 79.1648 6.83232 79.1648 7.08521V10.8665H77.3867Z" fill="white"/>
<path d="M72.9692 11.0088C72.4476 11.0088 72.0011 10.8982 71.6298 10.6769C71.2662 10.4478 70.9896 10.1317 70.8001 9.72866C70.6104 9.32562 70.5156 8.85543 70.5156 8.31808V4.39453H72.2937V8.17583C72.2937 8.4208 72.3411 8.63812 72.4358 8.82779C72.5387 9.00952 72.6808 9.15177 72.8627 9.25451C73.0443 9.35723 73.2498 9.40861 73.479 9.40861C73.7161 9.40861 73.9216 9.35723 74.0953 9.25451C74.277 9.15177 74.4154 9.00952 74.5102 8.82779C74.613 8.63812 74.6643 8.4208 74.6643 8.17583V4.39453H76.4424V10.8666H74.7829V10.079C74.632 10.3632 74.4185 10.5822 74.1427 10.7362C73.8109 10.918 73.4196 11.0088 72.9692 11.0088Z" fill="white"/>
<path fill-rule="evenodd" clip-rule="evenodd" d="M50.4046 11.0088C49.7647 11.0088 49.1798 10.8626 48.6503 10.5702C48.1287 10.2778 47.71 9.87871 47.3938 9.37295C47.0858 8.85929 46.9316 8.27847 46.9316 7.63047C46.9316 6.97456 47.0858 6.39374 47.3938 5.88798C47.71 5.38225 48.1287 4.98316 48.6503 4.69078C49.1798 4.39839 49.7647 4.2522 50.4046 4.2522C51.0447 4.2522 51.6257 4.39839 52.1471 4.69078C52.6687 4.98316 53.0837 5.38225 53.3918 5.88798C53.7079 6.39374 53.866 6.97456 53.866 7.63047C53.866 8.27847 53.7079 8.85929 53.3918 9.37295C53.0837 9.87871 52.6687 10.2778 52.1471 10.5702C51.6257 10.8626 51.0447 11.0088 50.4046 11.0088ZM50.4046 9.40851C50.7286 9.40851 51.0092 9.33343 51.2463 9.18329C51.4912 9.03314 51.681 8.82374 51.8152 8.55505C51.9576 8.28637 52.0287 7.97818 52.0287 7.63047C52.0287 7.28276 51.9576 6.97851 51.8152 6.71774C51.681 6.44907 51.4912 6.23965 51.2463 6.0895C51.0092 5.93145 50.7286 5.85244 50.4046 5.85244C50.0806 5.85244 49.7961 5.93145 49.5512 6.0895C49.3062 6.23965 49.1127 6.44907 48.9704 6.71774C48.8361 6.97851 48.7689 7.28276 48.7689 7.63047C48.7689 7.97818 48.8361 8.28637 48.9704 8.55505C49.1127 8.82374 49.3062 9.03314 49.5512 9.18329C49.7961 9.33343 50.0806 9.40851 50.4046 9.40851Z" fill="white"/>
<path fill-rule="evenodd" clip-rule="evenodd" d="M41.6523 13.2254C42.0789 13.3913 42.5414 13.4743 43.0391 13.4743C43.6634 13.4743 44.2127 13.3479 44.6867 13.095C45.1687 12.8421 45.5482 12.4904 45.8248 12.04C46.1012 11.5975 46.2396 11.0917 46.2396 10.5228V4.39444H44.5801V5.07422C44.3848 4.8451 44.1634 4.66593 43.9162 4.53668C43.5686 4.34702 43.1616 4.2522 42.6953 4.2522C42.1027 4.2522 41.5733 4.38654 41.1069 4.65521C40.6408 4.92391 40.2734 5.29531 40.0046 5.76945C39.7358 6.23569 39.6016 6.77307 39.6016 7.38155C39.6016 7.99003 39.7358 8.53529 40.0046 9.01734C40.2734 9.49148 40.6447 9.86685 41.1187 10.1434C41.5929 10.4121 42.1303 10.5465 42.7309 10.5465C43.1972 10.5465 43.6042 10.4595 43.9518 10.2857C44.1402 10.1871 44.3101 10.0619 44.4616 9.91001V10.5228C44.4616 10.7993 44.4022 11.0403 44.2838 11.2458C44.1731 11.4513 44.0111 11.6054 43.7978 11.7081C43.5843 11.8187 43.3315 11.8741 43.0391 11.8741C42.6678 11.8741 42.3477 11.7871 42.0789 11.6133C41.8102 11.4394 41.6325 11.2023 41.5456 10.9021L39.8978 11.4829C40.0323 11.8859 40.2496 12.2336 40.5498 12.526C40.858 12.8263 41.2255 13.0594 41.6523 13.2254ZM43.7623 8.74471C43.5409 8.87114 43.2802 8.93437 42.9798 8.93437C42.6796 8.93437 42.4108 8.87114 42.1737 8.74471C41.9447 8.61037 41.7628 8.42861 41.6285 8.19945C41.5021 7.97027 41.4388 7.70555 41.4388 7.40526C41.4388 7.09707 41.5021 6.82837 41.6285 6.59921C41.7628 6.36213 41.9447 6.18039 42.1737 6.05394C42.4108 5.9196 42.6796 5.85244 42.9798 5.85244C43.2723 5.85244 43.5291 5.9196 43.7502 6.05394C43.9716 6.18039 44.1454 6.36213 44.2718 6.59921C44.3983 6.82837 44.4616 7.09707 44.4616 7.40526C44.4616 7.71345 44.3983 7.98213 44.2718 8.21131C44.1533 8.44047 43.9834 8.61827 43.7623 8.74471Z" fill="white"/>
<path fill-rule="evenodd" clip-rule="evenodd" d="M35.7075 11.0088C35.0674 11.0088 34.4827 10.8626 33.9533 10.5702C33.4317 10.2778 33.0129 9.87871 32.6968 9.37295C32.3885 8.85929 32.2344 8.27847 32.2344 7.63047C32.2344 6.97456 32.3885 6.39374 32.6968 5.88798C33.0129 5.38225 33.4317 4.98316 33.9533 4.69078C34.4827 4.39839 35.0674 4.2522 35.7075 4.2522C36.3477 4.2522 36.9284 4.39839 37.45 4.69078C37.9716 4.98316 38.3864 5.38225 38.6947 5.88798C39.0109 6.39374 39.1687 6.97456 39.1687 7.63047C39.1687 8.27847 39.0109 8.85929 38.6947 9.37295C38.3864 9.87871 37.9716 10.2778 37.45 10.5702C36.9284 10.8626 36.3477 11.0088 35.7075 11.0088ZM35.7075 9.40851C36.0315 9.40851 36.3121 9.33343 36.5492 9.18329C36.7942 9.03314 36.9839 8.82374 37.1182 8.55505C37.2603 8.28637 37.3315 7.97818 37.3315 7.63047C37.3315 7.28276 37.2603 6.97851 37.1182 6.71774C36.9839 6.44907 36.7942 6.23965 36.5492 6.0895C36.3121 5.93145 36.0315 5.85244 35.7075 5.85244C35.3835 5.85244 35.0991 5.93145 34.8541 6.0895C34.6091 6.23965 34.4155 6.44907 34.2733 6.71774C34.1389 6.97851 34.0718 7.28276 34.0718 7.63047C34.0718 7.97818 34.1389 8.28637 34.2733 8.55505C34.4155 8.82374 34.6091 9.03314 34.8541 9.18329C35.0991 9.33343 35.3835 9.40851 35.7075 9.40851Z" fill="white"/>
<path d="M27.8138 21.2097C28.2111 21.4282 28.6712 21.5374 29.1942 21.5374C29.7239 21.5374 30.184 21.4282 30.5746 21.2097C30.9719 20.9912 31.2797 20.6933 31.4982 20.3158C31.7167 19.9318 31.8259 19.4948 31.8259 19.0049V14.0195H31.0315V19.0049C31.0315 19.3624 30.952 19.6769 30.7931 19.9484C30.6408 20.2132 30.4257 20.4217 30.1476 20.574C29.8762 20.7198 29.5584 20.7926 29.1942 20.7926C28.8301 20.7926 28.509 20.7198 28.2309 20.574C27.9595 20.4217 27.7443 20.2132 27.5854 19.9484C27.4331 19.6769 27.357 19.3624 27.357 19.0049V14.0195H26.5625V19.0049C26.5625 19.4948 26.6717 19.9318 26.8902 20.3158C27.1087 20.6933 27.4166 20.9912 27.8138 21.2097Z" fill="white"/>
<path d="M38.5332 16.0952V21.4183H39.278V16.0952H38.5332Z" fill="white"/>
<path d="M38.5332 14.0195V15.1119H39.278V14.0195H38.5332Z" fill="white"/>
<path d="M58.8652 21.4183V16.0952H59.6101V21.4183H58.8652Z" fill="white"/>
<path d="M58.8652 15.1119V14.0195H59.6101V15.1119H58.8652Z" fill="white"/>
<path d="M61.7689 21.0608C62.0271 21.3389 62.3946 21.4779 62.8713 21.4779C62.9309 21.4779 63.0103 21.4713 63.1096 21.4581C63.2089 21.4514 63.2983 21.4382 63.3777 21.4183V20.753C63.3248 20.7596 63.2619 20.7662 63.1891 20.7728C63.1162 20.7794 63.0533 20.7827 63.0004 20.7827C62.7819 20.7827 62.6064 20.743 62.474 20.6635C62.3482 20.584 62.2588 20.4781 62.2059 20.3457C62.1529 20.2067 62.1264 20.0478 62.1264 19.869V16.84H63.2983V16.0952H62.1264V14.8638H61.3816V15.3107C61.3816 15.5358 61.3154 15.7245 61.183 15.8767C61.0506 16.0224 60.8718 16.0952 60.6467 16.0952H60.3984V16.84H61.3816V19.869C61.3816 20.3854 61.5107 20.7827 61.7689 21.0608Z" fill="white"/>
<path d="M64.1694 23.5734C64.2819 23.5932 64.3912 23.6032 64.4971 23.6032C64.848 23.6032 65.1459 23.5303 65.3909 23.3847C65.6359 23.2456 65.8378 23.0603 65.9967 22.8285C66.1622 22.5968 66.2979 22.3518 66.4039 22.0936L68.837 16.0952H68.0127L66.2793 20.4892L64.5368 16.0952H63.7324L65.8614 21.4223L65.669 21.8752C65.5035 22.2592 65.3346 22.5174 65.1625 22.6498C64.9904 22.7888 64.7421 22.8583 64.4177 22.8583C64.3117 22.8583 64.2058 22.8484 64.0999 22.8285C64.0006 22.8153 63.9178 22.8054 63.8516 22.7987V23.4939C63.9575 23.5336 64.0635 23.5601 64.1694 23.5734Z" fill="white"/>
<path d="M54.6155 21.1502C54.9995 21.4084 55.4464 21.5375 55.9561 21.5375C56.3269 21.5375 56.6546 21.4746 56.9393 21.3488C57.224 21.2164 57.4458 21.0344 57.6047 20.8026C57.7702 20.5708 57.853 20.3093 57.853 20.018C57.853 19.6605 57.7305 19.3493 57.4855 19.0845C57.2472 18.8197 56.9128 18.6244 56.4825 18.4986L55.5986 18.2404C55.5059 18.2139 55.3967 18.1741 55.2709 18.1212C55.1517 18.0682 55.0458 17.9888 54.9531 17.8828C54.8604 17.7769 54.8141 17.6346 54.8141 17.4558C54.8141 17.2241 54.9035 17.0321 55.0822 16.8798C55.261 16.7275 55.4993 16.6514 55.7972 16.6514C56.1018 16.6514 56.3766 16.7375 56.6215 16.9096C56.8731 17.0751 57.0651 17.3068 57.1975 17.6048L57.8331 17.3068C57.6808 16.8897 57.4193 16.5653 57.0486 16.3336C56.6844 16.0952 56.2773 15.9761 55.827 15.9761C55.496 15.9761 55.1948 16.039 54.9233 16.1648C54.6519 16.2906 54.4367 16.4693 54.2778 16.701C54.1189 16.9328 54.0395 17.2042 54.0395 17.5154C54.0395 17.8464 54.1487 18.1377 54.3672 18.3893C54.5857 18.6409 54.9399 18.8362 55.4298 18.9752L56.1945 19.1937C56.3004 19.2202 56.4229 19.2632 56.5619 19.3228C56.701 19.3824 56.8235 19.4685 56.9294 19.581C57.0353 19.687 57.0883 19.8326 57.0883 20.018C57.0883 20.2696 56.979 20.4748 56.7606 20.6337C56.5421 20.7861 56.2739 20.8622 55.9561 20.8622C55.6251 20.8622 55.3206 20.7662 55.0425 20.5741C54.771 20.3821 54.5592 20.1239 54.4069 19.7995L53.7812 20.0975C53.9534 20.541 54.2315 20.892 54.6155 21.1502Z" fill="white"/>
<path d="M51.0508 21.4183V16.0952H51.7956V16.6711C51.9144 16.4978 52.07 16.3555 52.2624 16.2441C52.5206 16.0985 52.8317 16.0256 53.1959 16.0256H53.5335V16.7705H53.0668C52.6828 16.7705 52.3749 16.8896 52.1432 17.128C51.9115 17.3663 51.7956 17.704 51.7956 18.1409V21.4183H51.0508Z" fill="white"/>
<path fill-rule="evenodd" clip-rule="evenodd" d="M46.3125 21.18C46.7164 21.4184 47.1666 21.5375 47.6631 21.5375C48.0273 21.5375 48.3583 21.478 48.6562 21.3588C48.9608 21.233 49.2223 21.0708 49.4408 20.8722C49.6593 20.6668 49.8215 20.445 49.9274 20.2067L49.2918 19.869C49.1263 20.1471 48.9111 20.3788 48.6463 20.5642C48.3815 20.7497 48.0538 20.8424 47.6631 20.8424C47.3255 20.8424 47.0077 20.7563 46.7098 20.5841C46.4185 20.4119 46.1867 20.1703 46.0146 19.8591C45.8807 19.6024 45.8118 19.3111 45.8079 18.9852H49.9969C50.0102 18.8991 50.0201 18.8164 50.0267 18.7369C50.0333 18.6508 50.0367 18.5747 50.0367 18.5085C50.0367 18.1907 49.9804 17.8828 49.8678 17.5849C49.7553 17.2804 49.5931 17.0089 49.3812 16.7706C49.1693 16.5256 48.9111 16.3336 48.6066 16.1946C48.3087 16.0489 47.9677 15.9761 47.5837 15.9761C47.1004 15.9761 46.6634 16.0952 46.2728 16.3336C45.8888 16.5719 45.5842 16.8997 45.3591 17.3168C45.134 17.7272 45.0215 18.2006 45.0215 18.7369C45.0215 19.2732 45.1373 19.7532 45.3691 20.1769C45.6008 20.6006 45.9153 20.9351 46.3125 21.18ZM49.2382 18.29H45.8197C45.8443 18.0552 45.906 17.8434 46.0047 17.6544C46.1636 17.3432 46.382 17.1016 46.6601 16.9295C46.9448 16.7573 47.2527 16.6712 47.5837 16.6712C47.9147 16.6712 48.2127 16.7573 48.4775 16.9295C48.7423 17.095 48.9442 17.3234 49.0833 17.6147C49.188 17.8193 49.2395 18.0444 49.2382 18.29Z" fill="white"/>
<path d="M41.9252 21.4183L39.8496 16.0952H40.6838L42.298 20.4058L43.9213 16.0952H44.7655L42.67 21.4183H41.9252Z" fill="white"/>
<path d="M33.1387 21.4184V16.0952H33.8835V16.7546C34.0074 16.5635 34.1663 16.4033 34.3602 16.274C34.6647 16.0754 35.0156 15.9761 35.4129 15.9761C35.7903 15.9761 36.1279 16.0621 36.4258 16.2343C36.7304 16.4064 36.9687 16.6448 37.1409 16.9493C37.3196 17.2472 37.409 17.5849 37.409 17.9623V21.4184H36.6642V18.2503C36.6642 17.9259 36.6046 17.6511 36.4854 17.426C36.3729 17.2009 36.2107 17.0288 35.9988 16.9096C35.7936 16.7838 35.5552 16.7209 35.2838 16.7209C35.0123 16.7209 34.7707 16.7838 34.5588 16.9096C34.3469 17.0288 34.1814 17.2042 34.0623 17.4359C33.9431 17.661 33.8835 17.9325 33.8835 18.2503V21.4184H33.1387Z" fill="white"/>
</g>
<defs>
<clipPath id="clip0_350_8491">
<rect width="87.3103" height="24" fill="white"/>
</clipPath>
</defs>
</svg>
