<svg width="146" height="32" viewBox="0 0 146 32" fill="none" xmlns="http://www.w3.org/2000/svg">
<path fill-rule="evenodd" clip-rule="evenodd" d="M46.0779 2.12963C46.0779 1.04523 46.9665 0.166138 48.0629 0.166138H51.5209C52.3012 0.166138 53.0574 0.43361 53.6607 0.923024L54.7127 1.77632L54.739 1.80005C54.7632 1.79195 54.7875 1.78404 54.8119 1.77632C56.7097 1.17504 59.0123 1.06069 61.3624 1.06069C63.7125 1.06069 66.0151 1.17504 67.913 1.77632C67.9373 1.78404 67.9616 1.79195 67.9859 1.80005L68.0122 1.77632L69.0641 0.923024C69.6674 0.43361 70.4236 0.166138 71.2039 0.166138H74.6619C75.7583 0.166138 76.6469 1.04523 76.6469 2.12963V3.34343C76.6469 4.28255 76.247 5.17823 75.5452 5.81074L74.6966 6.57561C74.2823 6.94901 73.785 7.22076 73.2449 7.36891L73.0442 7.42398C73.8305 9.27993 74.265 11.2638 74.265 12.8686C74.265 19.3243 70.2268 22.1125 66.6687 24.5691C63.8667 26.5038 61.3624 28.2328 61.3624 31.3857C61.3624 28.2328 58.8581 26.5038 56.0561 24.5691C52.498 22.1125 48.4599 19.3243 48.4599 12.8686C48.4599 11.2638 48.8943 9.27993 49.6806 7.42398L49.4799 7.36891C48.9398 7.22076 48.4425 6.94901 48.0282 6.57561L47.1796 5.81074C46.4778 5.17823 46.0779 4.28255 46.0779 3.34343V2.12963ZM63.9429 18.1464C63.9429 18.4549 63.807 18.7506 63.565 18.9687C63.3231 19.1868 62.9949 19.3094 62.6526 19.3094C62.3572 19.3094 62.0722 19.218 61.8441 19.0526C62.2323 20.0806 63.2258 21.0545 64.7369 19.4882C66.0709 18.0329 64.6776 14.9633 63.3202 13.1418C62.8677 12.5346 62.1249 12.2424 61.3624 12.2424C60.5999 12.2424 59.8571 12.5346 59.4046 13.1418C58.0472 14.9633 56.6539 18.0329 57.9879 19.4882C59.499 21.0545 60.4925 20.0806 60.8807 19.0526C60.6526 19.218 60.3676 19.3094 60.0722 19.3094C59.7299 19.3094 59.4017 19.1868 59.1598 18.9687C58.9178 18.7506 58.7819 18.4549 58.7819 18.1464H63.9429ZM56.4214 9.05991H52.8269L55.6597 11.3036C56.2831 11.7972 57.1942 11.6394 57.5799 10.9709C58.067 10.1269 57.4201 9.05991 56.4214 9.05991ZM66.3034 9.05991H69.8979L67.0651 11.3036C66.4417 11.7972 65.5306 11.6394 65.1449 10.9709C64.6579 10.1269 65.3047 9.05991 66.3034 9.05991Z" fill="#D8C6FF"/>
<path d="M80.9288 22.2799H84.1132V10.2682H80.9288V22.2799ZM80.9288 8.39505H84.1132V5.53845H80.9288V8.39505Z" fill="white"/>
<path d="M86.1651 26.2137H89.3495V20.922H89.3963C90.0753 21.9523 91.1758 22.6313 92.8617 22.6313C95.9524 22.6313 98.0597 20.1727 98.0597 16.2859C98.0597 12.5396 96.0227 9.94055 92.8383 9.94055C91.1992 9.94055 90.0753 10.7132 89.3027 11.7669H89.2324V10.2684H86.1651V26.2137ZM92.1827 19.9854C90.2861 19.9854 89.2792 18.5571 89.2792 16.3796C89.2792 14.2254 90.0753 12.5162 92.0656 12.5162C94.0324 12.5162 94.8285 14.1084 94.8285 16.3796C94.8285 18.6508 93.7983 19.9854 92.1827 19.9854Z" fill="white"/>
<path d="M104.412 22.6313C107.409 22.6313 109.47 21.1796 109.47 18.7679C109.47 15.9581 107.245 15.3962 105.232 14.9747C103.522 14.6235 101.93 14.5298 101.93 13.4996C101.93 12.6332 102.75 12.1649 103.991 12.1649C105.349 12.1649 106.168 12.6332 106.309 13.921H109.189C108.955 11.5093 107.198 9.94055 104.037 9.94055C101.298 9.94055 99.1438 11.1815 99.1438 13.7806C99.1438 16.403 101.251 16.9884 103.405 17.4098C105.044 17.7376 106.566 17.8547 106.566 19.002C106.566 19.8449 105.77 20.3835 104.365 20.3835C102.937 20.3835 101.954 19.7747 101.743 18.3932H98.7926C98.9799 20.9454 100.923 22.6313 104.412 22.6313Z" fill="white"/>
<path d="M121.56 22.28V10.2683H118.376V17.199C118.376 18.7912 117.463 19.9151 115.964 19.9151C114.606 19.9151 113.974 19.1425 113.974 17.7376V10.2683H110.813V18.2761C110.813 20.8986 112.311 22.6078 114.981 22.6078C116.667 22.6078 117.603 21.9756 118.423 20.8751H118.493V22.28H121.56Z" fill="white"/>
<path d="M123.62 22.2801H126.804V15.3025C126.804 13.7103 127.671 12.6801 128.958 12.6801C130.129 12.6801 130.808 13.3825 130.808 14.7406V22.2801H133.993V15.3025C133.993 13.7103 134.812 12.6801 136.147 12.6801C137.317 12.6801 137.997 13.3825 137.997 14.7406V22.2801H141.181V14.202C141.181 11.5796 139.753 9.94055 137.224 9.94055C135.702 9.94055 134.437 10.7366 133.618 12.0479H133.571C132.986 10.7835 131.768 9.94055 130.246 9.94055C128.584 9.94055 127.413 10.7835 126.757 11.884H126.687V10.2684H123.62V22.2801Z" fill="white"/>
<path d="M0.533936 22.2799H3.71832V5.53845H0.533936V22.2799Z" fill="white"/>
<path d="M11.5047 22.6313C15.2276 22.6313 17.7798 19.8684 17.7798 16.2859C17.7798 12.7035 15.2276 9.94055 11.5047 9.94055C7.78169 9.94055 5.22949 12.7035 5.22949 16.2859C5.22949 19.8684 7.78169 22.6313 11.5047 22.6313ZM11.5047 20.1962C9.53782 20.1962 8.46075 18.6274 8.46075 16.2859C8.46075 13.9445 9.53782 12.3523 11.5047 12.3523C13.4481 12.3523 14.5486 13.9445 14.5486 16.2859C14.5486 18.6274 13.4481 20.1962 11.5047 20.1962Z" fill="white"/>
<path d="M24.5517 26.3776C26.3312 26.3776 27.8766 25.9562 28.8834 25.0196C29.7732 24.2001 30.3117 23.0527 30.3117 21.3669V10.2684H27.2444V11.5327H27.1975C26.4717 10.5259 25.3712 9.94055 23.8727 9.94055C20.8288 9.94055 18.6746 12.2352 18.6746 15.8176C18.6746 19.4469 21.2971 21.5542 23.9663 21.5542C25.4883 21.5542 26.4015 20.9454 27.1039 20.1493H27.1741V21.4606C27.1741 23.0996 26.3078 23.9659 24.5049 23.9659C23.0297 23.9659 22.3507 23.3806 22.0932 22.6313H18.9322C19.26 24.9727 21.2736 26.3776 24.5517 26.3776ZM24.5049 19.002C22.8658 19.002 21.7888 17.8079 21.7888 15.7708C21.7888 13.7571 22.8658 12.4927 24.4815 12.4927C26.4015 12.4927 27.338 13.9913 27.338 15.7474C27.338 17.5269 26.5185 19.002 24.5049 19.002Z" fill="white"/>
<path d="M38.0519 22.6313C41.7748 22.6313 44.327 19.8684 44.327 16.2859C44.327 12.7035 41.7748 9.94055 38.0519 9.94055C34.3289 9.94055 31.7767 12.7035 31.7767 16.2859C31.7767 19.8684 34.3289 22.6313 38.0519 22.6313ZM38.0519 20.1962C36.085 20.1962 35.008 18.6274 35.008 16.2859C35.008 13.9445 36.085 12.3523 38.0519 12.3523C39.9953 12.3523 41.0958 13.9445 41.0958 16.2859C41.0958 18.6274 39.9953 20.1962 38.0519 20.1962Z" fill="white"/>
<path d="M141.037 7.64602C141.037 7.1072 141.474 6.67041 142.013 6.67041H143.964C144.503 6.67041 144.94 7.1072 144.94 7.64602C144.94 8.1848 144.503 8.62164 143.964 8.62164H142.013C141.474 8.62164 141.037 8.1848 141.037 7.64602Z" fill="white"/>
</svg>
