<svg width="59" height="59" viewBox="0 0 59 59" fill="none" xmlns="http://www.w3.org/2000/svg">
<path d="M5.25294 11.6469C3.6582 14.7767 3.6582 18.8739 3.6582 27.0683V31.4578C3.6582 39.6522 3.6582 43.7494 5.25294 46.8792C6.65571 49.6323 8.89404 51.8706 11.6471 53.2734C14.777 54.8681 18.8742 54.8681 27.0686 54.8681H31.458C39.6524 54.8681 43.7496 54.8681 46.8794 53.2734C49.6325 51.8706 51.8709 49.6323 53.2736 46.8792C54.8684 43.7494 54.8684 39.6522 54.8684 31.4578V27.0683C54.8684 18.8739 54.8684 14.7767 53.2736 11.6469C51.8709 8.89379 49.6325 6.65546 46.8794 5.25269C43.7496 3.65796 39.6524 3.65796 31.458 3.65796H27.0686C18.8742 3.65796 14.777 3.65796 11.6471 5.25269C8.89404 6.65546 6.65571 8.89379 5.25294 11.6469Z" fill="url(#paint0_linear_350_8688)"/>
<path d="M4.14328 15.1426C3.6582 17.8993 3.6582 21.5571 3.6582 27.068V31.4575C3.6582 39.6519 3.6582 43.7491 5.25294 46.8789C6.65571 49.632 8.89404 51.8703 11.6471 53.2731C14.777 54.8678 18.8742 54.8678 27.0686 54.8678H31.458C39.6524 54.8678 43.7496 54.8678 46.8794 53.2731C49.6325 51.8703 51.8709 49.632 53.2736 46.8789C54.8684 43.7491 54.8684 39.6519 54.8684 31.4575V27.068C54.8684 18.8736 54.8684 14.7764 53.2736 11.6466C51.9197 8.9893 49.7873 6.81156 47.1649 5.40186L4.14328 15.1426Z" fill="url(#paint1_linear_350_8688)"/>
<path d="M54.3373 43.6274C54.1021 44.8633 53.7626 45.9169 53.2723 46.879C51.8696 49.6321 49.6312 51.8705 46.8782 53.2732C43.842 54.8202 39.8955 54.8665 32.1814 54.8679H29.3691V49.0827L54.3373 43.6274Z" fill="url(#paint2_linear_350_8688)"/>
<path d="M31.4604 3.65796H27.0709C25.4767 3.65796 24.0376 3.65796 22.7305 3.6697V10.9198L47.1625 5.39957C47.0696 5.34964 46.976 5.30068 46.8818 5.25269C45.1443 4.36737 43.1086 3.97354 40.2393 3.79834C37.9401 3.65796 35.1056 3.65796 31.4604 3.65796Z" fill="url(#paint3_linear_350_8688)"/>
<path d="M54.8698 31.7748C54.8696 37.2718 54.8599 40.8953 54.34 43.6275L45.6562 45.5248V32.5841L54.8698 30.4414V31.7748Z" fill="url(#paint4_linear_350_8688)"/>
<path fill-rule="evenodd" clip-rule="evenodd" d="M27.3264 24.4672C27.3264 23.2918 28.2874 22.8397 29.8791 22.8397C32.1615 22.8397 35.0445 23.5329 37.3269 24.7686V17.6859C34.8343 16.6914 32.3717 16.2996 29.8791 16.2996C23.7827 16.2996 19.7285 19.4943 19.7285 24.8289C19.7285 33.1472 31.1404 31.8211 31.1404 35.4076C31.1404 36.794 29.9392 37.2461 28.2574 37.2461C25.7648 37.2461 22.5815 36.2213 20.0589 34.835V42.008C22.8518 43.2136 25.6747 43.7259 28.2574 43.7259C34.5039 43.7259 38.7984 40.6216 38.7984 35.2268C38.7684 26.2454 27.3264 27.8427 27.3264 24.4672Z" fill="white"/>
<defs>
<linearGradient id="paint0_linear_350_8688" x1="3.6582" y1="3.65796" x2="20.4783" y2="15.5499" gradientUnits="userSpaceOnUse">
<stop stop-color="#392993"/>
<stop offset="1" stop-color="#4B47B9"/>
</linearGradient>
<linearGradient id="paint1_linear_350_8688" x1="5.58662" y1="15.6819" x2="42.7181" y2="46.3102" gradientUnits="userSpaceOnUse">
<stop stop-color="#594BB9"/>
<stop offset="1" stop-color="#60A8F2"/>
</linearGradient>
<linearGradient id="paint2_linear_350_8688" x1="29.3691" y1="49.297" x2="54.8671" y2="54.868" gradientUnits="userSpaceOnUse">
<stop stop-color="#61A2EF"/>
<stop offset="1" stop-color="#58E6FD"/>
</linearGradient>
<linearGradient id="paint3_linear_350_8688" x1="22.7305" y1="7.30052" x2="54.8707" y2="3.65796" gradientUnits="userSpaceOnUse">
<stop stop-color="#534EBE"/>
<stop offset="1" stop-color="#6875E2"/>
</linearGradient>
<linearGradient id="paint4_linear_350_8688" x1="45.6563" y1="32.6912" x2="54.8698" y2="43.7261" gradientUnits="userSpaceOnUse">
<stop stop-color="#71A5F3"/>
<stop offset="1" stop-color="#6CC3FA"/>
</linearGradient>
</defs>
</svg>
