<svg width="59" height="59" viewBox="0 0 59 59" fill="none" xmlns="http://www.w3.org/2000/svg">
<path fill-rule="evenodd" clip-rule="evenodd" d="M20.3358 25.7588C20.0705 25.4115 19.6432 25.2282 19.209 25.2754C18.7748 25.3226 18.3968 25.5935 18.2123 25.9897L7.45216 47.5184C7.25285 47.9173 7.27416 48.3911 7.50846 48.7705C7.74277 49.1499 8.15667 49.3808 8.60236 49.3809H23.5853C24.0755 49.3923 24.5264 49.1133 24.7355 48.6694C27.9675 41.9861 26.0088 31.8242 20.3358 25.7588Z" fill="url(#paint0_linear_350_8681)"/>
<path fill-rule="evenodd" clip-rule="evenodd" d="M28.2281 6.17746C22.7736 14.576 22.1441 25.229 26.5714 34.2124L33.7948 48.6694C34.0126 49.1054 34.4579 49.3808 34.945 49.3809H49.9252C50.3709 49.3808 50.7848 49.1499 51.0191 48.7705C51.2534 48.3911 51.2747 47.9173 51.0754 47.5184C51.0754 47.5184 30.922 7.17837 30.4155 6.16938C30.2111 5.75029 29.7852 5.4851 29.3192 5.48682C28.8533 5.48855 28.4293 5.75687 28.2281 6.17746Z" fill="#2684FF"/>
<defs>
<linearGradient id="paint0_linear_350_8681" x1="26.2327" y1="29.0813" x2="11.1403" y2="45.2823" gradientUnits="userSpaceOnUse">
<stop stop-color="#0052CC"/>
<stop offset="0.923" stop-color="#2684FF"/>
</linearGradient>
</defs>
</svg>
