<svg width="59" height="59" viewBox="0 0 59 59" fill="none" xmlns="http://www.w3.org/2000/svg">
<path d="M29.2633 3.65796C15.1405 3.65796 3.6582 15.1402 3.6582 29.263C3.6582 43.3858 15.1405 54.8681 29.2633 54.8681C43.3861 54.8681 54.8684 43.3858 54.8684 29.263C54.8684 15.1402 43.3861 3.65796 29.2633 3.65796Z" fill="url(#paint0_radial_350_8684)"/>
<path d="M37.5298 29.1554C34.0146 29.1554 31.1655 32.0453 31.1655 35.6103C31.1655 39.1755 34.0146 42.0656 37.5298 42.0656C41.0445 42.0656 43.8938 39.1755 43.8938 35.6103C43.8938 32.0453 41.0445 29.1554 37.5298 29.1554ZM20.995 29.1558C17.4803 29.1558 14.6309 32.0453 14.6309 35.6106C14.6309 39.1755 17.4803 42.0656 20.995 42.0656C24.51 42.0656 27.3595 39.1755 27.3595 35.6106C27.3595 32.0453 24.51 29.1558 20.995 29.1558ZM35.6263 21.0865C35.6263 24.6515 32.7772 27.542 29.2625 27.542C25.7474 27.542 22.8982 24.6515 22.8982 21.0865C22.8982 17.5217 25.7474 14.6316 29.2625 14.6316C32.7772 14.6316 35.6263 17.5217 35.6263 21.0865Z" fill="white"/>
<defs>
<radialGradient id="paint0_radial_350_8684" cx="0" cy="0" r="1" gradientUnits="userSpaceOnUse" gradientTransform="translate(29.2633 31.6454) scale(33.9336)">
<stop stop-color="#FFB900"/>
<stop offset="0.6" stop-color="#F95D8F"/>
<stop offset="0.9991" stop-color="#F95353"/>
</radialGradient>
</defs>
</svg>
