<svg width="20" height="20" viewBox="0 0 20 20" fill="none" xmlns="http://www.w3.org/2000/svg">
<path fill-rule="evenodd" clip-rule="evenodd" d="M1.04102 10.0003C1.04102 14.9478 5.05185 18.9587 9.99935 18.9587C14.9468 18.9587 18.9577 14.9478 18.9577 10.0003C18.9577 5.05283 14.9468 1.04199 9.99935 1.04199C5.05185 1.04199 1.04102 5.05283 1.04102 10.0003ZM13.896 6.88615C14.2352 7.19698 14.2577 7.72447 13.9469 8.06364L9.36353 13.0636C9.21019 13.2311 8.99435 13.3287 8.76768 13.3337C8.54018 13.3387 8.32101 13.2504 8.16018 13.0895L6.07684 11.0062C5.75101 10.6812 5.75101 10.1528 6.07684 9.8278C6.40184 9.50197 6.93019 9.50197 7.25519 9.8278L8.72351 11.2953L12.7185 6.93701C13.0293 6.59785 13.5569 6.57532 13.896 6.88615Z" fill="#D8C6FF"/>
</svg>
