<svg width="21" height="22" viewBox="0 0 21 22" fill="none" xmlns="http://www.w3.org/2000/svg">
<path d="M16.5 0C17.0523 0 17.5 0.447715 17.5 1V1.44922C17.4923 1.44677 17.4843 1.4448 17.4766 1.44238C18.2475 1.68345 18.9174 2.06401 19.4824 2.6748C20.3107 3.57046 20.6673 4.69306 20.8359 6.04883C21.0001 7.36907 21 9.05414 21 11.1738V11.8262C21 13.9459 21.0001 15.6309 20.8359 16.9512C20.6673 18.3069 20.3107 19.4295 19.4824 20.3252C18.6437 21.2319 17.5749 21.6328 16.2852 21.8203C15.0491 22 13.4766 22 11.5283 22H9.47168C7.52338 22 5.95094 22 4.71484 21.8203C3.42508 21.6328 2.35625 21.2319 1.51758 20.3252C0.689269 19.4295 0.332671 18.3069 0.164063 16.9512C-0.000107014 15.6309 -1.84629e-05 13.9459 4.30472e-07 11.8262V11.1738C-1.8463e-05 9.05414 -0.000107819 7.36907 0.164063 6.04883C0.332671 4.69306 0.689268 3.57046 1.51758 2.6748C2.08235 2.06424 2.7519 1.68347 3.52246 1.44238C3.51502 1.44471 3.50742 1.44687 3.5 1.44922V1C3.5 0.447715 3.94772 0 4.5 0C5.05229 0 5.5 0.447715 5.5 1V1.0918C5.43741 1.09703 5.37562 1.10352 5.31445 1.10938C6.44767 1.00097 7.82534 0.999974 9.47168 1H11.5283C13.1742 0.999974 14.5515 1.00107 15.6846 1.10938C15.6237 1.10356 15.5623 1.09701 15.5 1.0918V1C15.5 0.447715 15.9477 0 16.5 0ZM2.99805 8C2.53943 8 2.31011 8.00037 2.16406 8.14453C2.01809 8.2887 2.01466 8.51506 2.00879 8.96777C2.00006 9.64085 2 10.3942 2 11.2432V11.7568C2 13.9614 2.00145 15.5218 2.14844 16.7041C2.29284 17.8652 2.56274 18.5098 2.98633 18.9678C3.39963 19.4144 3.96494 19.6899 5.00293 19.8408C6.07847 19.9971 7.50416 20 9.5498 20H11.4502C13.4958 20 14.9215 19.9971 15.9971 19.8408C17.0351 19.6899 17.6004 19.4144 18.0137 18.9678C18.4373 18.5098 18.7072 17.8652 18.8516 16.7041C18.9986 15.5218 19 13.9614 19 11.7568V11.2432C19 10.3942 18.9999 9.64085 18.9912 8.96777C18.9853 8.51506 18.9819 8.2887 18.8359 8.14453C18.6899 8.00037 18.4606 8 18.002 8H2.99805ZM6.50879 14.75C7.19915 14.75 7.75879 15.3096 7.75879 16C7.75879 16.6904 7.19915 17.25 6.50879 17.25H6.5C5.80964 17.25 5.25 16.6904 5.25 16C5.25 15.3096 5.80964 14.75 6.5 14.75H6.50879ZM10.5049 14.75C11.1951 14.7502 11.7549 15.3098 11.7549 16C11.7549 16.6902 11.1951 17.2498 10.5049 17.25H10.4951C9.80494 17.2498 9.24512 16.6902 9.24512 16C9.24512 15.3098 9.80494 14.7502 10.4951 14.75H10.5049ZM6.50879 10.75C7.19915 10.75 7.75879 11.3096 7.75879 12C7.75879 12.6904 7.19915 13.25 6.50879 13.25H6.5C5.80964 13.25 5.25 12.6904 5.25 12C5.25 11.3096 5.80964 10.75 6.5 10.75H6.50879ZM10.5049 10.75C11.1951 10.7502 11.7549 11.3098 11.7549 12C11.7549 12.6902 11.1951 13.2498 10.5049 13.25H10.4951C9.80494 13.2498 9.24512 12.6902 9.24512 12C9.24512 11.3098 9.80494 10.7502 10.4951 10.75H10.5049ZM14.5 10.75C15.1904 10.75 15.75 11.3096 15.75 12C15.75 12.6904 15.1904 13.25 14.5 13.25H14.4912C13.8009 13.25 13.2412 12.6904 13.2412 12C13.2412 11.3096 13.8009 10.75 14.4912 10.75H14.5Z" fill="#03000A"/>
</svg>
