<svg width="22" height="22" viewBox="0 0 22 22" fill="none" xmlns="http://www.w3.org/2000/svg">
<path d="M11.2471 0.161865C12.1572 0.078239 13.9382 -0.0510452 15.6807 0.0212402C16.5505 0.0573275 17.4357 0.144458 18.209 0.322021C18.9576 0.493953 19.7165 0.774893 20.2207 1.27905C20.7249 1.78325 21.0058 2.54216 21.1777 3.29077C21.3553 4.06405 21.4424 4.9492 21.4785 5.81909C21.5508 7.56161 21.4215 9.34258 21.3379 10.2527C21.2856 10.8205 21.0532 11.3452 20.6904 11.7673C17.9812 14.9196 15.1729 17.7893 12.1064 20.5349C10.7033 21.7912 8.60761 21.8039 7.14648 20.6726C4.73711 18.807 2.6927 16.7627 0.827148 14.3533C-0.304154 12.8921 -0.29147 10.7964 0.964844 9.39331C3.71052 6.32681 6.58108 3.51864 9.7334 0.809326C10.1554 0.44669 10.6794 0.214123 11.2471 0.161865ZM6.45703 12.0427C6.06658 11.6524 5.43348 11.6525 5.04297 12.0427C4.65248 12.4332 4.65254 13.0663 5.04297 13.4568L8.04297 16.4568C8.43349 16.8473 9.06651 16.8473 9.45703 16.4568C9.84731 16.0662 9.84747 15.4332 9.45703 15.0427L6.45703 12.0427ZM16.25 3.74976C15.4217 3.74976 14.7502 4.42149 14.75 5.24976C14.75 6.07818 15.4216 6.74976 16.25 6.74976C17.0784 6.74967 17.75 6.07813 17.75 5.24976C17.7498 4.42154 17.0782 3.74984 16.25 3.74976Z" fill="#03000A"/>
</svg>
