<svg width="80" height="80" viewBox="0 0 80 80" fill="none" xmlns="http://www.w3.org/2000/svg">
<path d="M47.501 68.333V70C47.501 73.2215 44.8895 75.8328 41.668 75.833H35.001C31.7793 75.833 29.168 73.2217 29.168 70L29.168 68.333H47.501ZM55.001 4.16699C56.047 4.16699 56.9826 4.81784 57.3457 5.79883L58.2051 8.12207C59.4117 11.3829 59.7969 12.2695 60.4307 12.9033C61.0645 13.5372 61.9508 13.9222 65.2119 15.1289L67.5352 15.9883C68.5161 16.3513 69.1678 17.287 69.168 18.333C69.168 19.3791 68.5162 20.3147 67.5352 20.6777L65.2119 21.5381C61.9511 22.7447 61.0645 23.129 60.4307 23.7627C59.7968 24.3965 59.4118 25.2829 58.2051 28.5439L57.3457 30.8672C56.9827 31.8483 56.0471 32.5 55.001 32.5C53.9549 32.5 53.0193 31.8483 52.6563 30.8672L51.7969 28.5439C50.5902 25.2829 50.2051 24.3965 49.5713 23.7627C48.9375 23.129 48.0509 22.7447 44.79 21.5381L42.4668 20.6777C41.4857 20.3147 40.834 19.3791 40.834 18.333C40.8341 17.287 41.4858 16.3513 42.4668 15.9883L44.79 15.1289C48.0512 13.9222 48.9375 13.5372 49.5713 12.9033C50.205 12.2695 50.5902 11.3829 51.7969 8.12207L52.6562 5.79883C53.0193 4.81784 53.9549 4.16699 55.001 4.16699Z" fill="#5A147F"/>
<path opacity="0.4" d="M48.1418 5.99195C45.0976 4.81281 41.7919 4.1665 38.334 4.1665C23.1087 4.1665 10.834 16.6966 10.834 32.0688C10.834 42.2567 15.9493 49.9776 23.8383 54.7014C24.1546 54.8907 24.3157 55.1526 24.3602 55.375L25.1806 59.4772C25.7259 62.2038 28.12 64.1665 30.9006 64.1665H45.4353C48.2159 64.1665 50.61 62.2038 51.1553 59.4772L51.9758 55.375C52.0205 55.1516 52.1814 54.8917 52.4937 54.7057C60.3673 50.0147 65.834 42.3161 65.834 32.0688C65.834 29.9858 65.6086 27.9551 65.1811 26.0006C64.335 26.3254 63.7419 26.5677 63.3861 26.7316C63.1394 27.2671 62.7283 28.3266 62.1127 29.99L61.253 32.3134C60.2849 34.9297 57.7903 36.6665 55.0006 36.6665C52.211 36.6665 49.7164 34.9297 48.7483 32.3134L47.8886 29.99C47.273 28.3266 46.8488 27.228 46.6022 26.6925C46.1288 26.4745 45.2456 26.1481 43.8975 25.6499C43.7209 25.5847 43.5364 25.5165 43.3438 25.4453L41.0204 24.5855C38.4042 23.6174 36.6673 21.1228 36.6673 18.3332C36.6673 15.5436 38.4042 13.0489 41.0204 12.0808L43.3438 11.2211C45.0072 10.6056 46.0407 10.1944 46.5762 9.94775C46.8228 9.41231 47.2731 8.33975 47.8886 6.67635L48.1418 5.99195Z" fill="#5A147F"/>
</svg>
