<svg width="80" height="80" viewBox="0 0 80 80" fill="none" xmlns="http://www.w3.org/2000/svg">
<path opacity="0.4" d="M51.63 4.67643C47.8333 4.16643 42.98 4.1665 36.8534 4.1665C30.7267 4.1665 25.5 4.16643 21.7034 4.67643C17.7967 5.2031 14.6333 6.30989 12.1366 8.80322C9.6433 11.2999 8.53668 14.4631 8.01001 18.3698C7.50001 22.1665 7.5 27.02 7.5 33.1466V46.853C7.5 52.9797 7.50001 57.8331 8.01001 61.6297C8.53668 65.5364 9.6433 68.6998 12.1366 71.1965C14.6333 73.6898 17.7967 74.7964 21.7034 75.3231C25.5 75.8331 30.73 75.8332 36.8534 75.8332C40.8934 75.8332 44.38 75.833 47.3766 75.6864C40.59 72.7797 35.8333 66.0399 35.8333 58.1899C35.8333 47.6833 44.35 39.1665 54.8567 39.1665C58.9467 39.1665 62.7333 40.4566 65.8333 42.6499V33.1466C65.8333 27.02 65.8333 22.1665 65.3233 18.3698C64.7967 14.4631 63.69 11.2999 61.1967 8.80322C58.7 6.30989 55.5366 5.2031 51.63 4.67643Z" fill="#5A147F"/>
<path d="M54.8555 44.167C62.5988 44.167 68.8789 50.4471 68.8789 58.1904C68.8788 60.9169 68.1024 63.46 66.7559 65.6133L71.5723 70.4268C72.8089 71.6634 72.8088 73.6696 71.5723 74.9062C70.3356 76.1429 68.3294 76.1429 67.0928 74.9062L62.2793 70.0898C60.126 71.4365 57.5821 72.2129 54.8555 72.2129C47.1124 72.2128 40.8322 65.9369 40.832 58.1904C40.832 50.4472 47.1122 44.1671 54.8555 44.167ZM54.8555 50.5C50.6089 50.5001 47.166 53.9438 47.166 58.1904C47.1662 62.4369 50.609 65.8798 54.8555 65.8799C59.102 65.8799 62.5457 62.4369 62.5459 58.1904C62.5459 53.9438 59.1021 50.5 54.8555 50.5ZM36.666 34.167C38.0459 34.1672 39.166 35.2871 39.166 36.667C39.1658 38.0467 38.0458 39.1668 36.666 39.167H23.332C21.9523 39.1668 20.8322 38.0467 20.832 36.667C20.832 35.2871 21.9522 34.1672 23.332 34.167H36.666ZM49.999 20.833C51.3789 20.833 52.4988 21.9532 52.499 23.333C52.499 24.713 51.379 25.833 49.999 25.833L23.332 25.833C21.9522 25.8328 20.832 24.7129 20.832 23.333C20.8322 21.9533 21.9523 20.8332 23.332 20.833L49.999 20.833Z" fill="#5A147F"/>
</svg>
