<svg width="18" height="19" viewBox="0 0 18 19" fill="none" xmlns="http://www.w3.org/2000/svg">
<path d="M13.75 0C14.2102 0 14.583 0.373747 14.583 0.833984V1.20801C14.3956 1.14857 14.2009 1.09979 13.999 1.05859C14.8842 1.23926 15.6315 1.57668 16.2354 2.22949C16.9256 2.97585 17.2228 3.91125 17.3633 5.04102C17.5001 6.14115 17.5 7.54527 17.5 9.31152V9.85547C17.5 11.6217 17.5 13.0258 17.3633 14.126C17.2228 15.2559 16.9258 16.1921 16.2354 16.9385C15.5364 17.6941 14.6453 18.0273 13.5703 18.1836C12.5403 18.3333 11.2308 18.334 9.60742 18.334H7.89258C6.26914 18.334 4.95971 18.3333 3.92969 18.1836C2.8547 18.0273 1.96363 17.6941 1.26465 16.9385C0.574218 16.1921 0.277242 15.2559 0.136719 14.126C-4.95974e-05 13.0258 -1.5743e-05 11.6217 0 9.85547V9.31152C-1.57425e-05 7.54527 -8.1808e-05 6.14115 0.136719 5.04102C0.27722 3.91125 0.574448 2.97585 1.26465 2.22949C1.86828 1.57691 2.61524 1.23931 3.5 1.05859C3.29848 1.09975 3.1041 1.14867 2.91699 1.20801V0.833984C2.91699 0.373747 3.28976 3.22007e-07 3.75 0C4.21024 0 4.58301 0.373747 4.58301 0.833984V0.910156C4.53429 0.914233 4.48616 0.919305 4.43848 0.923828C5.38094 0.834427 6.5254 0.833962 7.89258 0.833984H9.60742C10.9741 0.833962 12.1183 0.834519 13.0605 0.923828C13.0132 0.919339 12.9654 0.914206 12.917 0.910156V0.833984C12.917 0.373747 13.2898 5.79613e-07 13.75 0ZM2.49805 6.66699C2.11596 6.66699 1.92442 6.66699 1.80273 6.78711C1.68126 6.90725 1.67872 7.09655 1.67383 7.47363C1.66656 8.0345 1.66699 8.66273 1.66699 9.37012V9.79785C1.66699 11.6351 1.66848 12.9356 1.79102 13.9209C1.91135 14.8884 2.13531 15.4251 2.48828 15.8066C2.83269 16.179 3.30388 16.4084 4.16895 16.5342C5.0652 16.6644 6.25339 16.667 7.95801 16.667H9.54199C11.2466 16.667 12.4348 16.6644 13.3311 16.5342C14.1961 16.4084 14.6673 16.179 15.0117 15.8066C15.3647 15.4251 15.5886 14.8884 15.709 13.9209C15.8315 12.9356 15.833 11.6351 15.833 9.79785V9.37012C15.833 8.66273 15.8334 8.0345 15.8262 7.47363C15.8213 7.09654 15.8187 6.90725 15.6973 6.78711C15.5756 6.66699 15.384 6.66699 15.002 6.66699H2.49805ZM5.42383 12.292C5.99912 12.292 6.46582 12.7587 6.46582 13.334C6.46564 13.9091 5.99902 14.375 5.42383 14.375H5.41699C4.8418 14.375 4.37518 13.9091 4.375 13.334C4.375 12.7587 4.8417 12.292 5.41699 12.292H5.42383ZM8.75391 12.292C9.32913 12.2921 9.79492 12.7587 9.79492 13.334C9.79475 13.9091 9.32902 14.3749 8.75391 14.375H8.74609C8.17098 14.3749 7.70525 13.9091 7.70508 13.334C7.70508 12.7587 8.17087 12.2921 8.74609 12.292H8.75391ZM5.42383 8.95898C5.99902 8.95898 6.46564 9.42485 6.46582 10C6.46582 10.5753 5.99912 11.042 5.42383 11.042H5.41699C4.8417 11.042 4.375 10.5753 4.375 10C4.37518 9.42485 4.8418 8.95898 5.41699 8.95898H5.42383ZM8.75391 8.95898C9.32902 8.95908 9.79475 9.42491 9.79492 10C9.79492 10.5752 9.32913 11.0419 8.75391 11.042H8.74609C8.17087 11.0419 7.70508 10.5752 7.70508 10C7.70525 9.42491 8.17098 8.95908 8.74609 8.95898H8.75391ZM12.083 8.95898C12.6582 8.95898 13.1248 9.42485 13.125 10C13.125 10.5753 12.6583 11.042 12.083 11.042H12.0762C11.5009 11.042 11.0342 10.5753 11.0342 10C11.0344 9.42485 11.501 8.95898 12.0762 8.95898H12.083Z" fill="#4F4D53"/>
</svg>
