<svg width="80" height="80" viewBox="0 0 80 80" fill="none" xmlns="http://www.w3.org/2000/svg">
<path opacity="0.4" d="M60.001 44.167C68.7455 44.167 75.834 51.2555 75.834 60C75.834 68.7445 68.7455 75.833 60.001 75.833C51.2565 75.833 44.168 68.7445 44.168 60C44.168 51.2555 51.2565 44.167 60.001 44.167ZM20.001 4.16699C28.7455 4.16699 35.834 11.2555 35.834 20C35.834 28.7445 28.7455 35.833 20.001 35.833C11.2565 35.833 4.16797 28.7445 4.16797 20C4.16797 11.2555 11.2565 4.16699 20.001 4.16699Z" fill="#5A147F"/>
<path d="M20.001 44.167C28.7455 44.167 35.834 51.2555 35.834 60C35.834 68.7445 28.7455 75.833 20.001 75.833C11.2565 75.833 4.16797 68.7445 4.16797 60C4.16797 51.2555 11.2565 44.167 20.001 44.167ZM59.168 5.83301C61.0088 5.83318 62.501 7.32615 62.501 9.16699V17.5H70.834C72.6748 17.5 74.1678 18.9922 74.168 20.833C74.168 22.674 72.6749 24.167 70.834 24.167L62.501 24.167V32.5C62.501 34.3408 61.0088 35.8328 59.168 35.833C57.327 35.833 55.834 34.3409 55.834 32.5V24.167L47.501 24.167C45.66 24.167 44.168 22.674 44.168 20.833C44.1681 18.9922 45.6601 17.5 47.501 17.5L55.834 17.5V9.16699C55.834 7.32604 57.327 5.83301 59.168 5.83301Z" fill="#5A147F"/>
</svg>
