<svg width="24" height="24" viewBox="0 0 24 24" fill="none" xmlns="http://www.w3.org/2000/svg">
<path d="M20.6934 18.7109C20.9087 18.623 21.1534 18.6399 21.3545 18.7568L22.377 19.3516C22.735 19.5597 22.8566 20.0189 22.6484 20.377C22.4403 20.7351 21.9812 20.8565 21.623 20.6484L21.3467 20.4873C20.4169 22.21 18.3634 23.1223 16.3789 22.6055C15.2242 22.3046 14.2969 21.5748 13.7373 20.6328C13.5258 20.2767 13.643 19.816 13.999 19.6045C14.3551 19.393 14.8158 19.5102 15.0273 19.8662C15.389 20.475 15.9915 20.9549 16.7568 21.1543C18.2971 21.5554 19.8528 20.6611 20.2539 19.2061C20.3157 18.982 20.4782 18.7989 20.6934 18.7109ZM11.5576 1.25C13.7479 1.24999 15.4683 1.25012 16.8115 1.43066C18.1882 1.61575 19.2805 2.00313 20.1387 2.86133C20.9969 3.71953 21.3842 4.81182 21.5693 6.18848C21.7499 7.53174 21.75 9.25213 21.75 11.4424V13C21.75 13.4142 21.4142 13.75 21 13.75C20.5858 13.75 20.25 13.4142 20.25 13V12.25H2.75098C2.75318 14.1254 2.77029 15.5211 2.91699 16.6123C3.07972 17.8225 3.38886 18.5451 3.92188 19.0781C4.39309 19.5493 5.01088 19.844 5.97754 20.0186C6.96535 20.197 8.2476 20.2394 10.002 20.248H11C11.4142 20.248 11.75 20.5838 11.75 20.998C11.7498 21.4121 11.4141 21.748 11 21.748H9.99609C8.2546 21.7395 6.84617 21.7001 5.71094 21.4951C4.55409 21.2862 3.6165 20.8938 2.86133 20.1387C2.00313 19.2805 1.61575 18.1882 1.43066 16.8115C1.25012 15.4683 1.24999 13.7479 1.25 11.5576V11.4424C1.24999 9.25213 1.25012 7.53174 1.43066 6.18848C1.61575 4.81182 2.00313 3.71953 2.86133 2.86133C3.71953 2.00313 4.81182 1.61575 6.18848 1.43066C7.53174 1.25012 9.25213 1.24999 11.4424 1.25H11.5576ZM7.75 14.5C8.85457 14.5 9.75 15.3954 9.75 16.5C9.75 17.6046 8.85457 18.5 7.75 18.5C6.64543 18.5 5.75 17.6046 5.75 16.5C5.75 15.3954 6.64543 14.5 7.75 14.5ZM13.6533 16.5127C14.5831 14.79 16.6365 13.8777 18.6211 14.3945C19.8033 14.7025 20.7468 15.4601 21.3018 16.4346C21.5067 16.7945 21.3813 17.253 21.0215 17.458C20.6615 17.663 20.203 17.5367 19.998 17.1768C19.6396 16.5474 19.0265 16.0498 18.2432 15.8457C16.7029 15.4446 15.1472 16.3389 14.7461 17.7939C14.6843 18.018 14.5218 18.2011 14.3066 18.2891C14.0913 18.377 13.8466 18.36 13.6455 18.2432L12.623 17.6484C12.2649 17.4403 12.1434 16.9812 12.3516 16.623C12.5597 16.265 13.0189 16.1435 13.377 16.3516L13.6533 16.5127ZM7.75 16C7.47386 16 7.25 16.2239 7.25 16.5C7.25 16.7761 7.47386 17 7.75 17C8.02614 17 8.25 16.7761 8.25 16.5C8.25 16.2239 8.02614 16 7.75 16ZM11.5 2.75C9.23963 2.75 7.6196 2.75137 6.3877 2.91699C5.17747 3.07972 4.4549 3.38885 3.92188 3.92188C3.38885 4.4549 3.07972 5.17747 2.91699 6.3877C2.77029 7.47886 2.75318 8.87458 2.75098 10.75H20.249C20.2468 8.87458 20.2297 7.47886 20.083 6.3877C19.9203 5.17747 19.6111 4.4549 19.0781 3.92188C18.5451 3.38886 17.8225 3.07972 16.6123 2.91699C15.3804 2.75137 13.7604 2.75 11.5 2.75ZM7.75 4.5C8.85457 4.5 9.75 5.39543 9.75 6.5C9.75 7.60457 8.85457 8.5 7.75 8.5C6.64543 8.5 5.75 7.60457 5.75 6.5C5.75 5.39543 6.64543 4.5 7.75 4.5ZM16.5 5.75C16.9142 5.75 17.25 6.08579 17.25 6.5C17.25 6.91421 16.9142 7.25 16.5 7.25H12.5C12.0858 7.25 11.75 6.91421 11.75 6.5C11.75 6.08579 12.0858 5.75 12.5 5.75H16.5ZM7.75 6C7.47386 6 7.25 6.22386 7.25 6.5C7.25 6.77614 7.47386 7 7.75 7C8.02614 7 8.25 6.77614 8.25 6.5C8.25 6.22386 8.02614 6 7.75 6Z" fill="#240F52"/>
</svg>
