<svg width="80" height="80" viewBox="0 0 80 80" fill="none" xmlns="http://www.w3.org/2000/svg">
<path opacity="0.4" d="M10.834 32.4549C10.834 32.7163 10.834 32.98 10.834 33.246L10.834 48.4913C10.8339 53.6034 10.8339 57.7252 11.2148 61.0046C11.6089 64.3978 12.4479 67.3052 14.4234 69.768C15.1485 70.6721 15.9677 71.4956 16.8671 72.2245C19.3172 74.2102 22.2095 75.0535 25.5851 75.4497C28.8477 75.8326 33.5397 75.8329 38.6255 75.8328C40.5253 75.8354 42.207 75.8376 43.7918 75.2754C44.1184 75.1595 44.4386 75.0262 44.751 74.876C46.2671 74.1471 47.4547 72.9502 48.7963 71.5981L64.739 55.5726C66.2969 54.0114 67.6795 52.6258 68.4264 50.8133C69.1733 49.0008 69.1703 47.0383 69.1669 44.8271L69.1664 33.2462C69.1665 27.3061 69.1666 22.5183 68.6629 18.7527C68.14 14.8432 67.0214 11.5514 64.4205 8.93707C61.8197 6.32272 58.545 5.19824 54.6557 4.67261C50.9096 4.16635 46.1465 4.16642 40.2372 4.16651C39.6651 4.1665 39.0992 4.16649 38.5404 4.16694C40.416 5.99949 41.8017 8.29804 42.5663 10.7744C47.0315 13.048 50.0007 17.7425 50.0007 22.9998C50.0007 30.3054 44.2317 36.6665 36.584 36.6665L20.834 36.6665C16.8595 36.6665 13.3604 35.0357 10.834 32.4549Z" fill="#5A147F"/>
<path d="M69.0391 48.3203C68.9371 49.1861 68.7541 50.0144 68.4248 50.8135C67.678 52.6259 66.2951 54.0112 64.7373 55.5723L48.7949 71.5986C47.4534 72.9508 46.2651 74.1471 44.749 74.876C44.4366 75.0261 44.1166 75.1596 43.79 75.2754C43.0932 75.5226 42.3774 75.6604 41.6328 75.7373V69.1279C41.6327 64.5887 41.6328 62.4013 42.0205 59.5176C42.4239 56.5172 43.2876 53.9908 45.2939 51.9844C47.3003 49.9781 49.826 49.1143 52.8262 48.7109C55.716 48.3224 57.8782 48.3203 62.4365 48.3203H69.0391ZM28.332 4.16699C34.0255 4.16699 38.3018 8.6638 38.9844 13.8301C42.9568 14.9335 45.832 18.668 45.832 23C45.832 28.1602 41.7757 32.5 36.582 32.5L20.832 32.5C15.2246 32.4998 10.8323 27.8121 10.832 22.2227C10.832 17.6351 13.7827 13.6634 17.9424 12.3789C19.1539 7.69964 23.2916 4.16714 28.332 4.16699Z" fill="#5A147F"/>
</svg>
