<svg width="24" height="24" viewBox="0 0 24 24" fill="none" xmlns="http://www.w3.org/2000/svg">
<path d="M5.94445 14.8369C9.49845 12.7208 14.0028 12.7207 17.5568 14.8369C17.6729 14.906 17.8162 14.9874 17.9786 15.0791C18.6914 15.4812 19.7697 16.089 20.5079 16.8115C20.9696 17.2634 21.4076 17.8593 21.4874 18.5889C21.5722 19.3646 21.2337 20.0924 20.5548 20.7393C19.3834 21.8553 17.9776 22.75 16.1593 22.75H7.34094C5.52274 22.7499 4.11683 21.8552 2.94543 20.7393C2.26662 20.0924 1.92805 19.3645 2.01281 18.5889C2.09256 17.8593 2.53161 17.2634 2.99328 16.8115C3.73145 16.0891 4.80889 15.4811 5.5216 15.0791C5.68419 14.9873 5.82819 14.9061 5.94445 14.8369ZM11.7501 1.25C14.6496 1.25 17.0001 3.6005 17.0001 6.5C17.0001 9.39949 14.6496 11.75 11.7501 11.75C8.8507 11.75 6.50012 9.39946 6.50012 6.5C6.50012 3.60053 8.8507 1.25005 11.7501 1.25Z" fill="#03000A"/>
</svg>
