<svg width="39" height="24" viewBox="0 0 39 24" fill="none" xmlns="http://www.w3.org/2000/svg">
<g clip-path="url(#clip0_350_8476)">
<path d="M35.7418 2.95016C35.7418 2.97814 35.7418 3.01312 35.7346 3.03411C35.6989 3.30695 35.6988 3.5798 35.7203 3.85964C35.7346 3.9296 35.7489 3.99956 35.8062 4.05553C35.8992 4.16046 36.0423 4.13948 36.0995 4.01355C36.1282 3.95059 36.1282 3.88762 36.1138 3.82466C36.0423 3.55881 36.028 3.27897 36.0208 3.00612C36.0208 2.99213 36.0208 2.97115 36.0208 2.95016C36.0995 2.94316 36.1711 2.93616 36.2355 2.93616C36.2856 2.92917 36.3285 2.92217 36.3643 2.90118C36.4716 2.84522 36.4716 2.72629 36.3571 2.67032C36.3142 2.64933 36.257 2.64233 36.2069 2.64233C36.028 2.64933 35.8491 2.64933 35.6702 2.64933C35.6059 2.64933 35.5414 2.65633 35.477 2.66332C35.4412 2.67032 35.3983 2.67032 35.3697 2.69131C35.3196 2.71229 35.291 2.74727 35.291 2.79624C35.2982 2.84522 35.3196 2.8732 35.3697 2.89419C35.3983 2.91518 35.4341 2.92217 35.4699 2.92217C35.5557 2.92917 35.6488 2.94316 35.7418 2.95016ZM37.7095 3.27197C37.7095 3.27897 37.7166 3.28596 37.7166 3.28596C37.7452 3.47486 37.7739 3.65675 37.7953 3.83865C37.8025 3.90161 37.8097 3.95758 37.8526 4.00655C37.9456 4.12548 38.0887 4.11149 38.1531 3.98556C38.1817 3.9226 38.1889 3.85964 38.1746 3.78968C38.1316 3.5798 38.1101 3.36992 38.0672 3.16703C38.0386 3.0411 38.0029 2.92217 37.9671 2.81024C37.9456 2.74028 37.8955 2.6913 37.8097 2.68431C37.7238 2.67032 37.6594 2.71229 37.6236 2.77526C37.5807 2.83122 37.5449 2.88719 37.5163 2.95016C37.4662 3.06209 37.4233 3.17403 37.366 3.27897C37.3588 3.30695 37.3517 3.32794 37.3374 3.34893C37.3303 3.33494 37.3231 3.32794 37.3231 3.32794C37.2301 3.15304 37.1442 2.97814 37.0512 2.81024C37.0369 2.79624 37.0297 2.78225 37.0226 2.76826C36.9796 2.7053 36.9296 2.67032 36.8508 2.67032C36.7793 2.67731 36.722 2.71929 36.6863 2.78225C36.6719 2.81024 36.6719 2.83122 36.6648 2.85921C36.6362 3.08308 36.6004 3.30695 36.5718 3.53083C36.5575 3.65675 36.5503 3.78268 36.5503 3.90861C36.5432 3.93659 36.5503 3.97157 36.5646 3.99956C36.5789 4.05552 36.6219 4.09051 36.6791 4.0975C36.7507 4.1045 36.8007 4.08351 36.8222 4.02754C36.8437 3.98556 36.8508 3.95059 36.858 3.91561C36.8866 3.78968 36.9081 3.67075 36.9296 3.55181C36.9439 3.48185 36.951 3.42588 36.9725 3.34893C36.9868 3.37691 37.0011 3.3979 37.0154 3.41889C37.0798 3.50284 37.1442 3.58679 37.2229 3.65675C37.3016 3.71272 37.366 3.70572 37.4304 3.64276C37.4447 3.62877 37.4519 3.62177 37.4662 3.60778C37.5306 3.50984 37.6093 3.41189 37.6737 3.31395C37.688 3.29996 37.6952 3.28596 37.7095 3.27197Z" fill="white"/>
<path d="M21.2239 3.08748C21.1742 3.22043 21.1647 3.31622 21.1876 3.39583C21.213 3.50409 21.2788 3.53954 21.3682 3.512C22.2086 3.3088 24.0516 3.88557 24.7339 4.04632C24.8948 4.08007 25.0257 3.87697 24.9159 3.69488C24.7556 3.51853 22.9135 2.76353 22.2106 2.72236C21.9351 2.70714 21.4426 2.63806 21.2239 3.08748Z" fill="white"/>
<path d="M28.4252 0.643643C28.5148 0.69419 28.5648 0.742408 28.5896 0.796283C28.6264 0.866952 28.607 0.915847 28.5451 0.940796C27.9896 1.2059 27.2503 2.34721 26.9519 2.74084C26.8796 2.83139 26.7127 2.77877 26.6875 2.62986C26.6927 2.46149 27.348 1.22291 27.7137 0.885563C27.8574 0.753852 28.0949 0.49542 28.4252 0.643643Z" fill="white"/>
<path d="M24.0015 0.0817069C24.1091 0.0024103 24.2209 -0.0253776 24.278 0.0261552C25.1162 0.727036 25.5607 1.83694 25.8359 2.85304C25.8463 2.87671 25.847 2.91068 25.8387 2.94612C25.8352 2.97641 25.8126 3.00841 25.7766 3.03316C25.7382 3.0605 25.7052 3.06882 25.6896 3.04527C25.3223 2.55672 23.2241 0.655865 24.0015 0.0817069Z" fill="white"/>
<path d="M6.25145 12.2333C6.45235 12.087 6.67075 11.9653 6.90185 11.8708C7.14365 11.8032 7.40138 11.8144 7.63609 11.9028C7.87075 11.9911 8.06967 12.1518 8.20265 12.3605C8.32162 12.5686 8.36815 12.8089 8.33531 13.0452C8.30247 13.2815 8.19202 13.5009 8.02053 13.6705C7.8876 13.8079 7.73667 13.9277 7.57178 14.0266C6.83684 14.4908 6.09535 14.9296 5.35389 15.3938C5.20217 15.51 5.04123 15.6143 4.87259 15.7055C4.61608 15.8305 4.32293 15.864 4.04383 15.8002C3.76473 15.7363 3.51723 15.5791 3.34414 15.3557C3.21474 15.1975 3.10553 15.0246 3.01893 14.8406C2.3165 13.397 1.58805 11.9598 0.911624 10.4908C0.599427 9.85492 0.345771 9.12357 0.0986171 8.4177C-0.00831307 8.21261 -0.0291941 7.97485 0.0404202 7.75492C0.110035 7.53499 0.264652 7.3503 0.471382 7.24012C0.678115 7.12994 0.920645 7.10299 1.1474 7.16496C1.37416 7.22692 1.56725 7.37294 1.6856 7.57192C2.04939 8.04461 2.37142 8.5467 2.6482 9.07274C3.35064 10.3446 4.02056 11.6164 4.69698 12.8501C4.73637 12.9183 4.7798 12.9841 4.82706 13.0472C5.33618 12.838 5.81504 12.5643 6.25145 12.2333Z" fill="white"/>
<path d="M13.5145 11.7895C11.908 13.6273 9.21535 13.1631 7.86251 10.7974C6.89989 9.11856 6.7308 6.34591 8.82513 4.59711C9.27235 4.23098 9.80711 3.98157 10.3796 3.87214C11.0815 3.77376 11.7972 3.89483 12.4245 4.21806C13.0517 4.54128 13.5585 5.05011 13.8723 5.67183C15.017 7.70682 14.8544 10.3014 13.5145 11.7895ZM12.8641 7.50331C12.6934 7.00323 12.3511 6.57631 11.895 6.29502C11.6369 6.11518 11.3234 6.02774 11.0071 6.04743C10.6908 6.06712 10.3911 6.19274 10.1584 6.40312C9.22839 7.21078 9.03322 9.12494 9.70964 10.2633C9.79588 10.4489 9.92248 10.6138 10.0807 10.7466C10.2389 10.8793 10.4249 10.9767 10.6257 11.0318C10.8264 11.0869 11.037 11.0985 11.2428 11.0657C11.4486 11.0329 11.6445 10.9565 11.817 10.8419C12.3212 10.4597 12.691 9.93347 12.8752 9.33631C13.0594 8.73909 13.0487 8.10063 12.8446 7.50969L12.8641 7.50331Z" fill="white"/>
<path d="M20.0698 8.30462C19.9053 8.3392 19.7354 8.34127 19.5701 8.31067C19.4048 8.28007 19.2474 8.21751 19.1072 8.12658C18.9845 8.05796 18.8789 7.96365 18.798 7.85036C18.7171 7.73707 18.6629 7.60769 18.6392 7.47144C18.6156 7.33524 18.6232 7.1956 18.6613 7.06256C18.6995 6.92953 18.7674 6.80642 18.86 6.70207C19.0215 6.4924 19.2507 6.34229 19.5104 6.27602C20.1886 6.08358 20.8867 5.96625 21.5917 5.92627C21.7466 5.90865 21.9036 5.92147 22.0533 5.96396C22.2031 6.00651 22.3426 6.0778 22.4638 6.1738C22.585 6.26974 22.6853 6.38844 22.759 6.52284C22.8325 6.65724 22.878 6.80467 22.8925 6.95647C23.0958 7.70211 23.118 8.48391 22.9576 9.23947C22.3722 11.6814 20.356 12.5208 18.0925 11.7386C17.4572 11.5295 16.9001 11.1398 16.4926 10.6194C15.949 9.99269 15.5635 9.24994 15.3673 8.45091C15.2084 7.73936 15.2258 7.00104 15.4182 6.29745C15.6105 5.59387 15.9722 4.94546 16.473 4.40639C16.9483 3.82048 17.5652 3.35937 18.2682 3.06458C18.7123 2.8252 19.2321 2.75714 19.7251 2.8738C19.8369 2.90406 19.9384 2.96302 20.0191 3.04458C20.0998 3.12613 20.1566 3.2273 20.1839 3.33759C20.2111 3.44788 20.2076 3.56329 20.1738 3.67183C20.14 3.78037 20.0772 3.8781 19.9918 3.95488C19.8293 4.09863 19.6529 4.22643 19.4649 4.33644C18.8867 4.69647 18.3835 5.16041 17.982 5.70367C17.7188 6.05522 17.5375 6.45891 17.451 6.88627C17.3645 7.31364 17.3748 7.75436 17.4812 8.17747C17.6287 8.75434 17.956 9.27214 18.4177 9.65914C19.8486 10.931 21.7088 9.70365 21.3836 7.96758C20.9088 8.08207 20.4925 8.20289 20.0698 8.30462Z" fill="white"/>
<path d="M28.811 11.8914C26.6972 13.1633 24.2908 11.8914 23.7639 9.22051C23.3802 7.31273 24.1086 4.64182 26.6582 3.62433C27.2007 3.4125 27.7891 3.33813 28.3688 3.40811C29.0653 3.53278 29.7042 3.86803 30.1955 4.36661C30.6867 4.86519 31.0056 5.50193 31.107 6.18713C31.5362 8.45737 30.5606 10.8803 28.811 11.8914ZM29.546 7.61159C29.5454 7.08331 29.3543 6.57211 29.0062 6.16804C28.8202 5.91811 28.5512 5.73904 28.2452 5.66131C27.9391 5.58364 27.6151 5.61211 27.3281 5.74199C26.1834 6.22526 25.3769 7.98042 25.6696 9.27141C25.692 9.47399 25.7593 9.66937 25.8669 9.84386C25.9745 10.0184 26.1198 10.1678 26.2927 10.2816C26.4655 10.3955 26.6617 10.4711 26.8675 10.5031C27.0733 10.5351 27.2838 10.5227 27.4842 10.4669C28.0893 10.2603 28.6132 9.87402 28.9828 9.36211C29.3525 8.85021 29.5494 8.2382 29.546 7.61159Z" fill="white"/>
<path d="M33.2445 12.4255C33.2126 12.6582 33.0875 12.869 32.8966 13.0116C32.7057 13.154 32.4647 13.2166 32.2267 13.1854C31.9886 13.1542 31.773 13.0318 31.6273 12.8451C31.4815 12.6585 31.4175 12.4229 31.4494 12.1902C31.4813 11.9574 31.6065 11.7466 31.7974 11.6041C31.9883 11.4615 32.2293 11.399 32.4673 11.4302C32.7053 11.4614 32.921 11.5838 33.0668 11.7704C33.2125 11.9571 33.2765 12.1927 33.2445 12.4255ZM32.6787 3.84677C32.8024 3.66205 32.9839 3.52138 33.196 3.44574C33.4082 3.3701 33.6397 3.36355 33.8559 3.42705C34.0758 3.48084 34.27 3.60685 34.4062 3.78397C34.5424 3.9611 34.6121 4.17859 34.6039 4.40003C34.5752 4.75521 34.5209 5.10797 34.4413 5.45565C34.2267 6.63215 34.0185 7.80858 33.7909 8.97236C33.6868 9.4366 33.5503 9.88175 33.4006 10.3523C33.3486 10.4994 33.2617 10.6323 33.147 10.7402C33.0757 10.8214 32.9847 10.8836 32.8822 10.9212C32.7798 10.9589 32.6693 10.9706 32.5611 10.9554C32.4528 10.9401 32.3501 10.8985 32.2627 10.8342C32.1753 10.7699 32.1058 10.6851 32.0608 10.5876C31.9835 10.4127 31.9415 10.2248 31.9372 10.0344C31.9372 9.2458 31.9372 8.45091 31.9893 7.65596C32.0777 6.52153 32.2516 5.39499 32.5096 4.28556C32.54 4.13692 32.5972 3.99478 32.6787 3.86585V3.84677Z" fill="white"/>
<path fill-rule="evenodd" clip-rule="evenodd" d="M3.50423 17.5358C3.42744 17.7034 3.40638 17.8903 3.4439 18.0701C3.46887 18.3072 3.5237 18.5404 3.60716 18.7643C3.71135 19.0386 3.82794 19.3098 3.9717 19.644C4.00476 19.7209 4.03931 19.8012 4.07546 19.8857C4.26933 20.3386 4.51258 20.9173 4.83704 21.7548C4.92888 21.9928 5.01043 22.2326 5.09256 22.4742C5.12573 22.5718 5.15903 22.6697 5.19311 22.7678C5.31527 23.1167 5.52546 23.4301 5.80408 23.6785C5.92239 23.815 6.07932 23.9145 6.25528 23.9642C6.43468 24.015 6.62548 24.0118 6.80297 23.955C6.98046 23.8982 7.13635 23.7906 7.25041 23.646C7.36223 23.5042 7.42872 23.3334 7.44164 23.1549C7.51419 22.8072 7.48943 22.4467 7.36986 22.1116C7.1801 21.555 6.96394 20.9977 6.71466 20.4526L6.71352 20.4502C6.30344 19.5973 5.88661 18.7503 5.45005 17.903L5.44678 17.897C5.31898 17.6763 5.15289 17.479 4.95599 17.3139C4.82815 17.1666 4.65182 17.0672 4.4571 17.0329C4.25822 16.998 4.05311 17.0332 3.87838 17.1324C3.71308 17.2247 3.58205 17.3659 3.50423 17.5358Z" fill="white"/>
<path fill-rule="evenodd" clip-rule="evenodd" d="M9.7673 15.4356C9.12432 15.2728 8.45281 15.249 7.79957 15.3661C7.29361 15.4148 6.79599 15.5289 6.45045 15.7549C6.2747 15.87 6.13261 16.0177 6.05358 16.2054C5.9741 16.3942 5.96396 16.6101 6.02908 16.8506C6.14799 17.2913 6.30241 17.7197 6.45628 18.1467L6.48121 18.2159L6.48181 18.2174C6.94512 19.458 7.41285 20.6944 7.88483 21.9265C7.93987 22.1207 8.0177 22.308 8.11676 22.4847L8.11861 22.4879C8.24947 22.7074 8.4173 22.9037 8.61503 23.0686C8.71392 23.1593 8.83621 23.222 8.96881 23.25C9.10272 23.2783 9.24197 23.2701 9.37141 23.2263C9.5009 23.1825 9.61556 23.1047 9.70294 23.0015C9.7889 22.9 9.84519 22.7777 9.86587 22.6476C9.95117 22.294 9.92385 21.9234 9.78748 21.5854C9.74494 21.4717 9.71156 21.3554 9.67638 21.2331C9.66465 21.1923 9.65276 21.1508 9.64021 21.1085C10.7206 20.6956 11.8701 20.1404 12.2744 18.8488C12.4327 18.4024 12.4459 17.9191 12.3121 17.465C12.1783 17.0105 11.9036 16.6076 11.5261 16.3119C11.0122 15.8979 10.4119 15.5988 9.7673 15.4356ZM7.98503 17.0198C8.0063 17.0138 8.02774 17.0083 8.04923 17.0031C8.75259 16.895 9.47221 17.039 10.0756 17.4086C10.3415 17.5895 10.4504 17.7904 10.4691 17.9837C10.4884 18.1827 10.4144 18.3984 10.2657 18.6057C9.98478 18.9973 9.47205 19.3108 9.0089 19.3692C8.67127 18.609 8.32839 17.818 7.98503 17.0198Z" fill="white"/>
<path d="M14.0535 14.044C14.8192 13.6982 15.7677 13.6385 16.5099 13.8816C16.6968 13.9348 16.859 14.05 16.9687 14.2074C17.0776 14.3637 17.1279 14.5522 17.1111 14.7406C17.11 14.8629 17.0793 14.9832 17.0216 15.0918C16.9628 15.2023 16.8776 15.2973 16.7733 15.3688C16.669 15.4404 16.5487 15.4863 16.4224 15.5028C16.2961 15.5192 16.1676 15.5057 16.0478 15.4633L16.0387 15.4601L16.0301 15.4557C15.9688 15.4243 15.9037 15.4007 15.8363 15.3853L15.832 15.3844C15.3099 15.2488 14.8174 15.4735 14.6375 15.7495C14.5517 15.8811 14.5411 16.014 14.6126 16.1349C14.6891 16.2643 14.8768 16.4096 15.2566 16.5131C15.361 16.5411 15.4681 16.5682 15.5767 16.5957C15.877 16.6717 16.1891 16.7507 16.4909 16.8602L16.4921 16.8606C17.8844 17.3786 18.4029 18.4513 18.2254 19.4603C18.0498 20.4581 17.1975 21.3662 15.9159 21.5804C15.4495 21.6814 14.9642 21.6618 14.5079 21.5233C14.0505 21.3843 13.6382 21.1309 13.3119 20.7879L13.3034 20.7789C13.2004 20.6497 13.1312 20.4979 13.1005 20.3368C13.0722 20.1915 13.0871 20.0413 13.1433 19.9039C13.1991 19.7673 13.2936 19.6491 13.4155 19.563C13.5443 19.4653 13.6995 19.4067 13.862 19.3945C14.024 19.3824 14.186 19.4168 14.3282 19.4935C14.4702 19.5606 14.6024 19.6461 14.7209 19.7479L14.7232 19.7498C14.933 19.9374 15.1868 19.9862 15.4301 19.941C15.6771 19.895 15.9093 19.7522 16.0586 19.5626C16.207 19.3743 16.2665 19.1505 16.1959 18.9333C16.1247 18.7146 15.9109 18.4694 15.4409 18.2645C15.3181 18.2135 15.1907 18.1724 15.0583 18.1323C15.0225 18.1215 14.9862 18.1108 14.9494 18.0999C14.8515 18.0708 14.7507 18.0409 14.6518 18.0079C14.5838 17.9852 14.5162 17.9637 14.4494 17.9424C14.2666 17.8842 14.0884 17.8274 13.9169 17.7513C13.5436 17.6271 13.2212 17.3885 12.9975 17.0709C12.7728 16.752 12.6598 16.3707 12.6752 15.9838C12.6764 15.0411 13.2837 14.3917 14.0535 14.044Z" fill="white"/>
<path d="M23.7605 13.9435C23.612 13.8726 23.4478 13.8389 23.2827 13.8455C23.1176 13.8522 22.9568 13.8989 22.8149 13.9815C22.6737 14.0636 22.5556 14.1784 22.4709 14.3159C22.3933 14.4317 22.3396 14.5612 22.3128 14.6972C22.286 14.8331 22.2867 14.9727 22.3147 15.1083C22.3423 15.2825 22.373 15.4519 22.4033 15.619C22.4534 15.8955 22.5021 16.1657 22.5343 16.4413L22.5355 16.4483C22.6088 16.8804 22.6471 17.3175 22.6506 17.7555L22.6509 17.7617C22.6759 18.2348 22.5111 18.6986 22.1917 19.0547L22.1867 19.0611C22.0827 19.1913 21.9438 19.2906 21.7854 19.3481C21.627 19.4055 21.4554 19.4187 21.2897 19.3862C21.1241 19.3537 20.9709 19.2768 20.8475 19.164C20.724 19.0513 20.6349 18.9068 20.5904 18.7474C20.4955 18.4116 20.4406 18.0662 20.4266 17.718L20.5887 15.1946C20.5911 15.1617 20.5939 15.1278 20.5967 15.0937C20.6028 15.0171 20.6091 14.939 20.6118 14.8662C20.6156 14.7591 20.6123 14.6489 20.5868 14.5446C20.5607 14.438 20.511 14.3366 20.4228 14.2503C20.3355 14.1648 20.2177 14.1017 20.0695 14.0588C19.8014 13.9829 19.5747 13.9853 19.3858 14.0637C19.1968 14.1421 19.0673 14.2876 18.9757 14.4557C18.8847 14.6224 18.8263 14.8198 18.7821 15.0174C18.7494 15.1641 18.723 15.3181 18.698 15.4647C18.6893 15.5152 18.6809 15.5648 18.6723 15.6129L18.6721 15.6143C18.5381 16.4181 18.4982 17.2342 18.5532 18.0468C18.5635 18.486 18.6571 18.9195 18.8295 19.3251C19.0239 19.8485 19.3761 20.302 19.8396 20.6258C20.3041 20.9501 20.8583 21.1289 21.429 21.1383C21.9996 21.1478 22.5597 20.9874 23.0352 20.6787C23.5098 20.3703 23.8777 19.9284 24.0901 19.4114C24.3872 18.7527 24.5267 18.0364 24.4979 17.3171C24.4805 16.7919 24.4512 16.2627 24.4221 15.7362C24.4079 15.4779 24.3936 15.2202 24.3809 14.964C24.3744 14.7072 24.2878 14.4584 24.1326 14.2511C24.0365 14.12 23.9087 14.0143 23.7605 13.9435Z" fill="white"/>
<path d="M29.0171 17.9004C29.002 17.9192 28.9861 17.9385 28.9696 17.9587C28.8488 17.2775 28.7369 16.5965 28.6248 15.9146C28.5846 15.6699 28.5442 15.4241 28.5035 15.1791L28.4989 15.1518L28.4841 15.1282C28.4561 15.0837 28.4533 15.0401 28.4533 14.9472V14.9365L28.4516 14.9258C28.4213 14.7339 28.3325 14.5552 28.1969 14.4133C28.0616 14.2718 27.8859 14.1733 27.6926 14.1305C27.4997 14.084 27.297 14.0942 27.1099 14.16C26.9234 14.2256 26.7608 14.3435 26.6424 14.499C26.544 14.6183 26.4634 14.7506 26.4029 14.892C26.2657 15.1966 26.1274 15.5019 25.9886 15.8081L25.9862 15.8134C25.6398 16.5777 25.291 17.3472 24.9524 18.1227L24.9514 18.1252C24.7435 18.6281 24.5719 19.1579 24.4009 19.6862C24.3667 19.7916 24.3326 19.897 24.2982 20.0021C24.2364 20.1688 24.2094 20.3458 24.2187 20.5228C24.2075 20.6813 24.2462 20.8394 24.3299 20.9757C24.4152 21.1148 24.543 21.2242 24.6953 21.2886C24.8566 21.3578 25.037 21.3724 25.2079 21.3303C25.3784 21.2883 25.5298 21.1921 25.6383 21.0568C25.7768 20.8901 25.896 20.7084 25.9932 20.5159C26.2801 19.9421 26.5542 19.3614 26.8271 18.7833C26.9327 18.5596 27.0353 18.3593 27.152 18.1412C27.1601 18.1681 27.1682 18.1943 27.1767 18.2206C27.299 18.7473 27.5056 19.2517 27.7886 19.7154C27.8422 19.8137 27.9168 19.8995 28.0073 19.9671C28.099 20.0355 28.2047 20.0835 28.3172 20.1079C28.4298 20.1323 28.5464 20.1324 28.659 20.1082C28.7714 20.0841 28.8775 20.0361 28.9692 19.968L29.1506 19.8352L30.5592 18.6752L30.4759 19.1942C30.3616 19.9076 30.2481 20.615 30.1276 21.3226C30.0487 21.6363 30.0488 21.9639 30.1279 22.2774C30.1621 22.4539 30.2494 22.6163 30.3786 22.744C30.5088 22.8728 30.6756 22.9603 30.8574 22.9952C31.0391 23.0301 31.2274 23.0108 31.3978 22.9397C31.5656 22.8697 31.7084 22.7527 31.8083 22.6035C32.0405 22.3217 32.1851 21.9807 32.2248 21.6208C32.2846 21.1127 32.3521 20.5976 32.4197 20.0827C32.4975 19.4892 32.5753 18.8958 32.6411 18.3139L32.6413 18.3121C32.7046 17.6751 32.7352 17.0354 32.733 16.3954C32.7469 16.1931 32.6954 15.9916 32.5856 15.8194C32.4755 15.6466 32.3124 15.5123 32.1197 15.4354C31.9192 15.3463 31.6947 15.3225 31.4793 15.3675C31.2653 15.4122 31.0716 15.5225 30.9263 15.6823C30.6665 15.9172 30.4228 16.1686 30.1967 16.4349L30.1952 16.4367C29.9484 16.7374 29.7032 17.044 29.4597 17.3486C29.3116 17.5338 29.164 17.7185 29.0171 17.9004Z" fill="white"/>
</g>
<defs>
<clipPath id="clip0_350_8476">
<rect width="38.1818" height="24" fill="white"/>
</clipPath>
</defs>
</svg>
