<svg width="24" height="24" viewBox="0 0 24 24" fill="none" xmlns="http://www.w3.org/2000/svg">
<g clip-path="url(#clip0_350_8461)">
<path d="M11.9993 0C18.6269 0 23.9993 5.3724 23.9993 12V20.4C23.9993 21.3548 23.62 22.2705 22.9449 22.9456C22.2697 23.6207 21.3541 24 20.3993 24H12.5993V18.7356C12.5993 17.5344 12.6725 16.29 13.3025 15.2676C13.7535 14.5349 14.3569 13.9078 15.0716 13.4288C15.7863 12.9498 16.5957 12.6301 17.4449 12.4914L17.6747 12.4542C17.7694 12.4218 17.8517 12.3606 17.9099 12.2792C17.9681 12.1977 17.9994 12.1001 17.9994 12C17.9994 11.8999 17.9681 11.8023 17.9099 11.7208C17.8517 11.6394 17.7694 11.5782 17.6747 11.5458L17.4449 11.5086C16.2042 11.3059 15.0585 10.7187 14.1695 9.82973C13.2806 8.94079 12.6933 7.7951 12.4907 6.5544L12.4535 6.3246C12.4211 6.22986 12.3599 6.14762 12.2785 6.08939C12.197 6.03116 12.0994 5.99985 11.9993 5.99985C11.8992 5.99985 11.8015 6.03116 11.7201 6.08939C11.6387 6.14762 11.5775 6.22986 11.5451 6.3246L11.5079 6.5544C11.3692 7.40356 11.0496 8.21297 10.5706 8.92771C10.0915 9.64244 9.4644 10.2458 8.73167 10.6968C7.70927 11.3268 6.46487 11.4 5.26367 11.4H0.0136719C0.327472 5.0514 5.57327 0 11.9993 0Z" fill="white"/>
<path d="M0 12.6H5.2644C6.4656 12.6 7.71 12.6732 8.7324 13.3032C9.53158 13.7957 10.2043 14.4684 10.6968 15.2676C11.3268 16.29 11.4 17.5344 11.4 18.7356V24H3.6C2.64522 24 1.72955 23.6207 1.05442 22.9456C0.379285 22.2705 0 21.3548 0 20.4L0 12.6ZM24 1.2C24 1.51826 23.8736 1.82348 23.6485 2.04853C23.4235 2.27357 23.1183 2.4 22.8 2.4C22.4817 2.4 22.1765 2.27357 21.9515 2.04853C21.7264 1.82348 21.6 1.51826 21.6 1.2C21.6 0.88174 21.7264 0.576516 21.9515 0.351472C22.1765 0.126428 22.4817 0 22.8 0C23.1183 0 23.4235 0.126428 23.6485 0.351472C23.8736 0.576516 24 0.88174 24 1.2Z" fill="white"/>
</g>
<defs>
<clipPath id="clip0_350_8461">
<rect width="24" height="24" fill="white"/>
</clipPath>
</defs>
</svg>
